<svg width="374" height="374" viewBox="0 0 374 374" fill="none" xmlns="http://www.w3.org/2000/svg">
<path d="M196.207 125.861C196.207 125.861 214.757 126.697 222.244 127.069C227.73 127.343 233.222 127.638 238.708 127.975C241.454 128.144 244.2 128.327 246.954 128.544C248.33 128.657 249.707 128.769 251.09 128.902C251.259 128.917 251.428 128.938 251.596 128.952C251.519 128.664 251.442 128.369 251.357 128.081C250.943 126.648 250.465 125.229 249.889 123.874C249.756 123.522 249.601 123.192 249.44 122.862C249.285 122.532 249.138 122.181 248.962 121.865L248.45 120.889L247.881 119.961C247.487 119.364 247.066 118.788 246.609 118.255C246.518 118.241 246.434 118.234 246.342 118.219C244.804 117.995 243.287 117.644 241.805 117.201C240.323 116.752 238.869 116.225 237.472 115.494C240.569 115.094 243.54 114.897 246.448 114.602C247.895 114.462 249.328 114.3 250.711 114.09C251.407 113.991 252.074 113.858 252.748 113.724L253.717 113.486C254.047 113.415 254.335 113.296 254.644 113.205L255.108 113.057L255.621 112.868L256.653 112.495L258.725 111.737C260.109 111.224 261.5 110.718 262.953 110.227C263.684 109.981 264.428 109.742 265.264 109.531C265.496 109.475 265.735 109.419 266.002 109.363C265.946 108.92 265.889 108.478 265.826 108.042C265.622 106.644 265.384 105.261 265.054 103.926C264.892 103.259 264.702 102.606 264.478 101.995C264.449 101.925 264.421 101.854 264.393 101.777L130.417 98.1318L174.364 119.273L1.26172 116.089L221.802 147.536L196.214 125.847L196.207 125.861Z" fill="#E64783"/>
<path d="M263.847 238.585C263.713 239.224 263.559 239.835 263.397 240.432C263.236 241.029 263.06 241.612 262.877 242.195C262.835 242.322 262.793 242.448 262.751 242.581C262.863 242.673 262.983 242.771 263.116 242.869C263.636 243.263 264.219 243.663 264.816 244.042C266.017 244.815 267.274 245.552 268.56 246.276C269.838 246.999 271.137 247.702 272.451 248.39C273.399 248.889 274.361 249.38 275.323 249.865C272.865 245.152 271.018 237.77 269.803 227.846C268.812 219.754 268.595 212.731 268.56 211.256C267.815 208.826 262.02 203.305 256.268 198.803C256.085 198.992 255.903 199.182 255.727 199.372C254.962 200.229 254.273 201.057 253.81 201.893C253.297 202.771 252.841 203.776 252.461 204.836C251.675 206.943 251.12 209.254 250.698 211.586C250.298 213.89 250.024 216.236 249.855 218.596C250.038 218.87 250.235 219.136 250.459 219.403C251.071 220.127 251.808 220.794 252.602 221.433C253.395 222.072 254.266 222.648 255.165 223.189C255.615 223.463 256.078 223.716 256.542 223.962C256.774 224.088 257.006 224.2 257.244 224.313C257.469 224.418 257.729 224.545 257.905 224.622L259.92 225.493L259.204 227.544L257.862 231.386L262.983 234.378L264.163 235.066L264.135 236.394C264.114 237.328 263.98 237.953 263.854 238.606L263.847 238.585Z" fill="#E64783"/>
<path d="M329.969 141.728C326.443 142.858 322.91 144.003 319.391 145.169L317.677 145.745C318.618 145.71 319.567 145.668 320.515 145.654C321.547 145.647 322.58 145.654 323.612 145.654H323.928L324.223 145.794C325.733 146.504 327.208 147.22 328.69 147.958C330.165 148.695 331.633 149.461 333.094 150.261C334.548 151.055 335.995 151.877 337.428 152.776C338.144 153.225 338.847 153.696 339.549 154.216C339.9 154.483 340.251 154.757 340.603 155.066C340.954 155.396 341.305 155.719 341.663 156.26L341.761 156.4L341.811 156.569C341.86 156.723 341.909 156.871 341.958 157.025C341.79 156.302 341.614 155.592 341.424 154.883C341.136 153.801 340.771 152.748 340.336 151.715C339.893 150.69 339.423 149.678 338.889 148.688C338.369 147.691 337.8 146.714 337.147 145.731C337.667 146.012 338.13 146.398 338.566 146.792C339.008 147.192 339.401 147.635 339.774 148.091C340.511 149.018 341.136 150.037 341.656 151.097C342.731 153.218 343.419 155.501 344.002 157.742C344.297 158.865 344.564 159.996 344.803 161.127C345.056 162.258 345.28 163.396 345.491 164.526C345.505 164.611 345.519 164.695 345.533 164.779C347.893 164.653 354.193 164.379 356.56 164.857L357.01 164.948L357.347 165.257C359.819 167.547 362.537 169.998 364.357 171.557C364.609 171.08 364.848 170.644 365.031 170.3C362.854 166.83 353.919 155.255 351.756 153.45C349.284 151.392 339.226 143.849 339.128 143.772L338.924 143.596L338.109 142.823C337.919 142.781 337.723 142.732 337.533 142.69C336.662 142.493 335.784 142.311 334.913 142.163C334.042 142.016 333.164 141.875 332.301 141.791C331.5 141.714 330.706 141.664 329.955 141.686L329.969 141.728Z" fill="#00BCE7"/>
<path d="M356.084 184.686C354.749 184.686 353.155 184.566 351.743 184.187C351.947 184.728 352.129 185.283 352.41 185.838C351.75 185.571 351.244 185.058 350.774 184.566C350.317 184.061 349.91 183.513 349.552 182.951C348.842 181.813 348.273 180.619 347.69 179.439C346.552 177.058 345.534 174.642 344.586 172.198C343.631 169.753 342.746 167.288 341.861 164.83C341.004 162.442 340.168 160.054 339.346 157.645C339.227 157.497 339.023 157.308 338.812 157.125C338.545 156.9 338.243 156.675 337.934 156.45C337.309 156.008 336.642 155.594 335.954 155.186C334.584 154.372 333.158 153.613 331.718 152.876C330.279 152.138 328.818 151.429 327.35 150.733C325.98 150.087 324.596 149.448 323.227 148.837C322.328 148.837 321.429 148.823 320.537 148.802C319.532 148.795 318.535 148.823 317.538 148.83C316.54 148.851 315.543 148.907 314.546 148.935L313.057 149.041C312.558 149.083 312.059 149.097 311.568 149.16L310.086 149.322C309.594 149.371 309.109 149.462 308.618 149.532L307.887 149.638L307.164 149.771C306.679 149.862 306.194 149.947 305.724 150.066C305.246 150.178 304.769 150.291 304.305 150.431C303.834 150.558 303.378 150.719 302.928 150.874C302.479 151.035 302.029 151.204 301.615 151.408C301.397 151.499 301.208 151.611 301.004 151.717C300.906 151.773 300.821 151.829 300.73 151.885C300.681 151.913 300.646 151.941 300.611 151.962C300.589 151.976 300.575 151.984 300.561 151.998C299.964 152.812 299.367 153.62 298.763 154.428C298.117 155.278 297.464 156.128 296.79 156.956C296.122 157.792 295.427 158.614 294.718 159.415C294.008 160.222 293.278 161.009 292.491 161.746C293.004 160.798 293.524 159.864 294.05 158.93C294.31 158.466 294.577 158.003 294.851 157.539C295.118 157.076 295.385 156.619 295.666 156.163C296.207 155.242 296.769 154.336 297.323 153.43L299.009 150.719L299.058 150.642L299.15 150.558C299.248 150.466 299.304 150.417 299.367 150.368C299.431 150.319 299.494 150.263 299.55 150.221C299.669 150.136 299.789 150.038 299.908 149.961C300.147 149.806 300.386 149.645 300.625 149.518C301.102 149.237 301.594 149.005 302.086 148.781C302.577 148.563 303.076 148.359 303.575 148.191C304.073 148.001 304.579 147.846 305.085 147.692C306.805 147.179 308.547 146.8 310.296 146.512C311.315 146.07 312.326 145.648 313.344 145.22L318.633 143.063C320.979 142.115 323.332 141.181 325.692 140.254C325.46 140.163 325.222 140.064 324.99 139.973L321.78 138.667C319.947 138.73 318.114 138.821 316.273 138.983C313.998 139.193 311.708 139.425 309.425 139.783C308.287 139.966 307.143 140.142 306.012 140.359C304.874 140.556 303.736 140.781 302.598 141.012C300.33 141.49 298.068 141.996 295.813 142.593C297.956 141.68 300.147 140.872 302.366 140.141C303.476 139.776 304.586 139.425 305.71 139.095C306.834 138.765 307.964 138.47 309.095 138.175C311.364 137.599 313.668 137.107 315.999 136.735L316.66 136.644C315.346 136.131 314.012 135.66 312.712 135.288C311.258 135.099 309.776 134.951 308.301 134.783C306.777 134.614 305.246 134.473 303.715 134.333C302.184 134.213 300.653 134.087 299.122 134.038C298.356 134.017 297.59 134.003 296.825 134.038C296.052 134.059 295.301 134.136 294.542 134.326C295.223 133.954 295.982 133.68 296.748 133.497C297.513 133.293 298.286 133.167 299.065 133.034C300.618 132.802 302.177 132.661 303.743 132.563C305.302 132.458 306.862 132.429 308.428 132.408C309.994 132.387 311.539 132.43 313.12 132.479H313.162L313.323 132.507C314.897 132.802 316.351 133.251 317.819 133.701C319.265 134.178 320.698 134.677 322.103 135.225L324.21 136.061L326.289 136.953C327.574 137.529 328.846 138.112 330.103 138.765C330.981 138.751 331.824 138.8 332.653 138.884C333.158 138.933 333.65 138.997 334.142 139.074L330.742 135.85L330.672 135.752C328.937 135.66 327.216 135.464 325.524 135.113C323.241 134.628 320.993 134.003 318.83 133.188C316.66 132.38 314.553 131.439 312.502 130.386C311.476 129.852 310.472 129.304 309.474 128.714C308.526 128.159 307.62 127.59 306.679 126.944C306.061 126.684 305.366 126.502 304.628 126.368C303.813 126.228 302.963 126.143 302.107 126.101C300.386 126.024 298.616 126.094 296.853 126.242C295.09 126.396 293.32 126.628 291.557 126.916C289.794 127.211 288.031 127.548 286.289 127.956C287.961 127.309 289.668 126.726 291.388 126.193C293.109 125.659 294.851 125.181 296.628 124.774C298.398 124.373 300.203 124.043 302.057 123.868C302.985 123.79 303.933 123.748 304.902 123.776C305.871 123.812 306.862 123.924 307.894 124.226L308.056 124.275L308.259 124.416C309.109 124.999 310.057 125.603 310.992 126.15C311.933 126.705 312.895 127.232 313.871 127.738C315.817 128.742 317.826 129.627 319.87 130.393C321.913 131.165 324.006 131.741 326.121 132.191C326.816 132.338 327.518 132.451 328.221 132.542C320.677 123.517 307.838 113.782 301.32 108.844C299.29 107.306 297.829 106.196 297.071 105.536C296.08 104.665 295.174 103.366 294.324 101.827C294.282 102.417 294.24 103.007 294.191 103.597C294.135 104.243 294.079 104.89 294.001 105.543C293.931 106.196 293.84 106.856 293.699 107.573L293.629 107.896L293.573 107.959L290.131 111.864L291.431 106.821L291.304 107.2C291.325 106.66 291.325 106.049 291.304 105.43C291.283 104.812 291.248 104.187 291.213 103.562C291.136 102.312 291.03 101.048 290.925 99.7905C290.721 97.4445 290.489 95.0916 290.23 92.7527C289.408 90.8493 288.572 89.0863 287.94 88.3418C285.741 85.7711 260.098 68.0644 255.666 66.0486C253.72 65.1637 246.1 63.6256 238.725 62.1295C237.903 61.961 237.067 61.7923 236.224 61.6237C234.581 61.3708 232.937 61.1181 231.301 60.8512C225.801 59.9802 220.309 59.032 214.823 58.0347C209.345 57.0233 203.866 55.9907 198.416 54.7967C192.973 53.5886 187.529 52.2893 182.226 50.5123C182.915 50.6247 183.61 50.7301 184.291 50.8495C184.973 50.9759 185.661 51.0883 186.349 51.1866L190.479 51.8046L194.609 52.4157C195.986 52.6054 197.362 52.809 198.739 53.0267C202.462 53.5605 206.177 54.1225 209.9 54.6914C200.347 50.8846 186.342 44.6335 184.242 43.6924C176.102 42.0488 153.401 36.6617 149.7 35.7837C137.605 38.0804 123.396 46.3824 115.129 51.7626C116.569 51.6151 118.002 51.4534 119.442 51.3059C121.275 51.1163 123.115 50.9758 124.969 50.9547C125.896 50.9407 126.824 50.9548 127.751 50.9829C128.214 51.011 128.692 51.1304 129.176 51.3481C129.661 51.5869 130.153 51.9031 130.672 52.479C130.272 53.1392 129.844 53.5396 129.408 53.8627C128.973 54.1647 128.53 54.3753 128.074 54.4807C127.168 54.6773 126.255 54.8599 125.342 55.0074C123.515 55.3235 121.682 55.5201 119.842 55.6676C118.002 55.8151 116.162 55.9276 114.321 56.0961L108.808 56.6089L86.7604 58.6878L43.0239 62.8038C42.5674 63.0005 42.2162 63.2603 41.9353 63.6185C41.6122 64.0329 41.3593 64.6158 41.2048 65.3252C40.8958 66.751 40.9941 68.521 41.268 70.2699C41.549 72.0328 42.0195 73.8169 42.5885 75.5798C42.8694 76.4648 43.1855 77.3428 43.5156 78.2137C43.7052 78.7124 43.9089 79.2251 44.1196 79.7237C44.7377 79.6324 45.4612 79.499 46.2689 79.4077C46.6763 79.3585 47.1117 79.3235 47.6174 79.3305C48.1231 79.3446 48.6921 79.3656 49.4506 79.6395C49.8299 79.78 50.2583 80.0048 50.6517 80.37C50.75 80.4613 50.8413 80.5596 50.9326 80.665C50.9747 80.7141 51.0169 80.7703 51.059 80.8265L51.1223 80.9109L51.1503 80.9529L51.2065 81.0373C51.5086 81.5149 51.5928 81.9292 51.635 82.2383C51.6771 82.5543 51.6631 82.7862 51.649 82.9828C51.635 83.1865 51.6069 83.348 51.5788 83.5026C51.5226 83.8046 51.4524 84.0435 51.3821 84.2682C51.1012 85.1462 50.7992 85.8063 50.5182 86.4665C50.2373 87.1127 49.9704 87.7309 49.7807 88.2717C49.7456 88.377 49.7105 88.4824 49.6824 88.5807C49.9774 88.9459 50.2794 89.3041 50.5814 89.6624C54.1705 93.8695 58.0968 97.8801 62.0932 101.806L63.3294 103.007C63.4769 103.007 63.6595 103.007 63.8632 102.993C64.4462 102.958 65.1275 102.867 65.8439 102.783C66.5744 102.705 67.3189 102.607 68.3092 102.635C68.5621 102.649 68.836 102.663 69.1731 102.726C69.5032 102.797 69.9036 102.881 70.4374 103.19C70.6973 103.337 71.0274 103.632 71.1608 103.794C71.3364 103.977 71.498 104.223 71.6314 104.461C71.9053 104.96 72.0107 105.501 72.0318 105.936C72.0528 106.393 71.9966 106.744 71.9334 107.046C71.8702 107.362 71.7859 107.601 71.7016 107.847C71.5331 108.303 71.3575 108.668 71.203 109.006C71.0414 109.336 70.9009 109.624 70.7956 109.877C70.7956 109.884 70.7886 109.898 70.7815 109.905C70.9571 109.926 71.1468 109.94 71.3505 109.94C71.9334 109.947 72.5866 109.905 73.2609 109.848C73.9422 109.799 74.6446 109.701 75.3961 109.673C76.1476 109.652 76.9273 109.701 77.8263 109.87C78.2758 109.961 78.7605 110.059 79.3504 110.333C79.6384 110.481 79.9685 110.677 80.2635 110.993C80.411 111.148 80.5445 111.33 80.6498 111.527C80.72 111.653 80.8043 111.864 80.8395 112.012C80.8746 112.159 80.9027 112.328 80.9027 112.44C80.9097 112.953 80.8043 113.248 80.72 113.515C80.6287 113.775 80.5234 113.978 80.4251 114.182C80.3408 114.337 80.2635 114.477 80.1792 114.625H153.991L109.707 93.3217C109.608 93.5183 109.51 93.7221 109.405 93.9188C109.054 94.6422 108.688 95.3585 108.295 96.0749C107.916 96.7913 107.536 97.5078 107.129 98.2242C106.729 98.9406 106.335 99.6641 105.872 100.395C105.802 99.5517 105.767 98.6948 105.802 97.8589C105.851 97.0231 105.907 96.1802 106.019 95.3585C106.132 94.5367 106.265 93.7149 106.413 92.9002C106.567 92.0925 106.764 91.2918 106.946 90.4911C107.368 88.8476 107.86 87.2322 108.407 85.6378C107.122 85.6378 105.844 85.5816 104.587 85.4903C102.374 85.3288 100.197 85.0618 98.0334 84.7387C93.7139 84.0785 89.4645 83.2005 85.2503 82.2102C81.0432 81.2128 76.8711 80.096 72.7271 78.902C68.5761 77.6939 64.4813 76.4297 60.3584 75.032L61.1169 75.1583C60.6393 74.9827 60.1266 74.8072 59.5858 74.7159C59.045 74.6036 58.4831 74.5685 57.9001 74.5755C57.3171 74.5755 56.7201 74.6528 56.1231 74.7792C55.5261 74.9056 54.915 75.0952 54.3391 75.3691C54.6622 74.8002 55.0696 74.2734 55.5331 73.7747C55.9967 73.276 56.5164 72.8054 57.0924 72.3911C57.6683 71.9767 58.2934 71.5834 58.9747 71.2744C59.649 70.9443 60.3724 70.7054 61.124 70.4947L61.4752 70.4806L61.8825 70.6211C65.865 71.9696 69.9527 73.234 74.0194 74.414C78.1002 75.5939 82.2021 76.6896 86.3179 77.6658C90.4338 78.6351 94.5778 79.492 98.7147 80.1241C100.787 80.4332 102.859 80.679 104.91 80.8335C106.701 80.967 108.492 81.0162 110.22 80.9249C111.442 78.0242 112.79 75.1865 114.3 72.4192C115.08 70.9863 115.909 69.5746 116.787 68.1909C117.672 66.8072 118.585 65.4376 119.631 64.1312C119.371 65.7818 119.006 67.3903 118.606 68.9706C118.205 70.558 117.77 72.1242 117.292 73.6764C116.358 76.7809 115.298 79.8292 114.16 82.8424C113.036 85.8626 111.814 88.8265 110.444 91.7413C110.255 92.1347 110.072 92.5209 109.875 92.9142L259.866 96.995L254.163 91.8958C252 89.9714 249.857 88.0328 247.715 86.0943C250.075 87.7659 252.435 89.4375 254.781 91.1302L261.819 96.1874L263.575 97.4515L264.453 98.0908L264.888 98.4068C264.965 98.463 265.022 98.4981 265.12 98.5754C265.225 98.6597 265.331 98.7511 265.436 98.8424C266.152 99.5658 266.525 100.296 266.869 101.006C267.213 101.722 267.487 102.438 267.733 103.155C268.147 104.37 268.491 105.585 268.8 106.8L268.821 106.751L269.924 104.391L270.444 103.288C270.542 103.078 270.605 102.663 270.626 102.277C270.669 101.476 270.626 100.626 270.556 99.7834C270.486 98.9336 270.381 98.0838 270.268 97.2269C270.022 95.5271 269.748 93.8134 269.348 92.1277C270.008 93.7361 270.535 95.3867 271.048 97.0513C271.294 97.8871 271.532 98.7299 271.736 99.5867C271.94 100.444 272.122 101.308 272.214 102.242C272.249 102.719 272.298 103.176 272.158 103.801L271.778 105.129L271.055 107.615L270.219 110.48C270.275 110.551 270.331 110.621 270.388 110.691L270.535 110.923L270.676 111.155L270.774 111.351C270.914 111.625 270.999 111.843 271.09 112.082C271.259 112.531 271.378 112.946 271.49 113.353C271.617 113.831 271.722 114.287 271.813 114.751C272.179 114.884 272.551 115.011 272.944 115.116C273.899 115.383 274.911 115.601 275.936 115.769C276.449 115.861 276.969 115.924 277.489 116.008L279.062 116.191L280.649 116.331L282.244 116.444L280.705 116.914L279.153 117.35L277.58 117.75C277.053 117.862 276.519 117.996 275.978 118.101C274.904 118.319 273.808 118.495 272.67 118.6C272.101 118.656 271.518 118.684 270.907 118.684C270.598 118.684 270.296 118.677 269.959 118.642C269.798 118.635 269.622 118.607 269.446 118.579C269.362 118.565 269.25 118.544 269.158 118.523C269.116 118.516 269.053 118.502 268.99 118.481L268.899 118.452C268.899 118.452 268.786 118.41 268.737 118.396L267.979 118.094C267.979 118.094 268.625 121.093 268.182 122.688L269.257 124.24L273.057 129.74L268.625 127.724C267.993 128.405 267.304 129.037 266.567 129.606C265.464 130.442 264.256 131.151 262.985 131.685C261.713 132.219 260.379 132.605 259.03 132.816C258.356 132.928 257.675 132.998 256.986 133.027C256.642 133.041 256.298 133.048 255.947 133.041C255.771 133.041 255.596 133.034 255.413 133.02L255.139 132.998L254.816 132.963L254.662 132.935C254.367 132.886 254.107 132.823 253.777 132.781C253.454 132.739 253.137 132.689 252.807 132.647C252.147 132.57 251.48 132.493 250.806 132.43C249.464 132.296 248.101 132.184 246.739 132.078C244.021 131.868 241.288 131.685 238.549 131.516C233.085 131.179 227.606 130.884 222.128 130.61C217.541 130.386 212.948 130.168 208.354 129.964L236.864 154.147L86.3521 132.218C85.3478 136.207 84.3021 142.972 83.5225 147.004C82.6305 151.527 81.893 156.071 81.296 160.637C80.6849 165.202 80.2144 169.781 79.8913 174.375C79.7227 176.854 79.5963 179.341 79.5049 181.82L80.2284 180.9L84.5128 175.428L84.0212 182.368C83.2626 193.1 83.6349 203.903 85.1731 214.544C86.7113 225.184 89.4154 235.65 93.2433 245.693C97.0642 255.737 101.988 265.367 107.937 274.301C113.479 282.624 119.905 290.364 127.147 297.233L130.602 293.686L132.14 292.113L133.77 293.602C139.6 298.926 145.71 303.948 152.074 308.612C158.444 313.275 165.06 317.609 171.887 321.57C178.722 325.518 185.766 329.107 192.987 332.296C197.587 334.325 202.251 336.201 206.978 337.907C206.732 337.598 206.486 337.296 206.24 336.987C204.365 336.784 202.237 336.158 199.919 335.203L206.24 336.987C204.203 334.389 202.293 331.698 200.488 328.931C196.892 323.397 193.752 317.553 191.231 311.421C188.709 305.297 186.813 298.884 185.738 292.31C184.657 285.736 184.446 279 185.162 272.355L185.612 268.183L188.92 270.775L193.197 274.132C193.556 273.451 193.928 272.784 194.321 272.131C195.248 270.614 196.288 269.16 197.461 267.797C199.793 265.079 202.679 262.705 206.037 261.132C207.694 260.345 209.464 259.776 211.262 259.425C210.876 259.186 210.497 258.933 210.11 258.694C207.308 256.952 204.491 255.253 201.64 253.623C198.788 251.994 195.908 250.427 193.001 249.03C191.554 248.327 190.093 247.667 188.653 247.14C187.937 246.873 187.22 246.649 186.574 246.494C186.518 246.48 186.469 246.473 186.412 246.459C186.532 246.74 186.672 247.035 186.82 247.33C187.487 248.629 188.372 249.971 189.292 251.27L196.253 261.146L186.244 254.466C185.141 253.729 183.954 252.991 182.788 252.268C181.615 251.537 180.435 250.835 179.241 250.132C176.86 248.735 174.444 247.386 172.007 246.094C167.125 243.495 162.146 241.079 157.089 238.859C152.025 236.647 146.862 234.645 141.587 232.946C138.946 232.11 136.277 231.351 133.58 230.67C130.876 230.024 128.144 229.469 125.377 229.012C128.179 228.991 130.996 229.153 133.791 229.469C136.586 229.813 139.375 230.263 142.135 230.867C147.656 232.068 153.071 233.718 158.367 235.678C161.015 236.661 163.628 237.729 166.219 238.852C168.804 239.99 171.361 241.184 173.882 242.449C176.404 243.713 178.904 245.026 181.376 246.389C181.419 246.41 181.454 246.431 181.496 246.459C181.44 246.206 181.398 245.932 181.376 245.63C181.355 245.244 181.376 244.78 181.517 244.247C181.657 243.72 181.988 243.102 182.465 242.652C182.936 242.196 183.47 241.943 183.912 241.795C184.362 241.648 184.748 241.599 185.099 241.578C185.45 241.55 185.759 241.564 186.054 241.578C186.637 241.62 187.15 241.704 187.635 241.809C188.604 242.02 189.468 242.308 190.311 242.61C191.989 243.221 193.563 243.931 195.108 244.668C198.177 246.164 201.12 247.801 204.028 249.479C205.952 250.596 207.856 251.748 209.745 252.914C208.221 250.961 206.655 249.044 205.018 247.176C204.688 246.796 204.365 246.403 204.028 246.031L203.002 244.914C202.307 244.183 201.661 243.397 200.952 242.673C199.533 241.233 198.142 239.744 196.653 238.354L195.55 237.293C195.185 236.935 194.827 236.57 194.441 236.24C193.682 235.551 192.916 234.884 192.158 234.182C191.413 233.465 190.606 232.833 189.826 232.159C189.039 231.492 188.253 230.817 187.473 230.122C191.245 231.843 194.932 233.852 198.367 236.247C201.858 238.571 205.102 241.254 208.186 244.113C211.276 246.972 214.128 250.097 216.713 253.434C217.373 254.255 217.97 255.133 218.602 255.976C219.22 256.833 219.782 257.732 220.372 258.61C220.927 259.516 221.482 260.415 222.001 261.349C222.261 261.813 222.514 262.283 222.76 262.761C222.879 263 223.006 263.239 223.118 263.492C223.238 263.737 223.35 263.976 223.476 264.264L224.467 266.533L222.479 267.39L217.773 269.855C218.616 270.255 219.466 270.649 220.309 271.056C221.447 271.611 222.584 272.173 223.722 272.77C224.291 273.065 224.86 273.374 225.443 273.704C225.731 273.873 226.026 274.041 226.328 274.224C226.63 274.413 226.932 274.603 227.29 274.877C227.389 274.947 227.473 275.017 227.592 275.123C227.698 275.214 227.824 275.333 227.986 275.516C228.091 275.642 228.147 275.692 228.295 275.945L228.386 276.106L228.428 276.19C228.449 276.233 228.47 276.296 228.491 276.345C228.533 276.457 228.569 276.57 228.597 276.682C228.611 276.738 228.625 276.794 228.632 276.858L228.646 276.949L228.66 277.096C228.674 277.3 228.66 277.511 228.618 277.715C228.583 277.918 228.519 278.108 228.421 278.311C228.323 278.508 228.196 278.698 228.056 278.866C227.887 279.056 227.824 279.098 227.712 279.189C227.606 279.267 227.494 279.344 227.375 279.407C227.318 279.442 227.255 279.47 227.199 279.499L227.108 279.534C226.981 279.583 226.855 279.625 226.721 279.66C226.644 279.681 226.623 279.681 226.581 279.688L226.469 279.709L226.251 279.737L226.166 279.751L225.998 279.772L225.829 279.793L225.626 279.829C225.352 279.871 225.071 279.92 224.776 279.983C224.488 280.039 224.193 280.096 223.898 280.166C222.711 280.419 221.51 280.7 220.309 280.995C219.824 281.114 219.339 281.24 218.848 281.36C220.555 282.189 222.296 282.947 224.08 283.635C227.712 284.998 231.42 286.185 235.22 287.112C239.013 288.039 242.862 288.798 246.739 289.381C248.677 289.669 250.623 289.922 252.569 290.118C253.545 290.224 254.514 290.308 255.49 290.385C256.354 290.455 257.232 290.512 258.068 290.547C258.202 290.519 258.335 290.483 258.504 290.42L258.855 290.301L259.234 290.139C259.733 289.929 260.259 289.655 260.786 289.367C261.833 288.784 262.886 288.11 263.926 287.4C266.005 285.974 268.042 284.401 270.051 282.786C272.052 281.163 274.026 279.484 275.971 277.778C277.91 276.071 279.849 274.315 281.71 272.552L282.096 272.194L282.588 272.032L287.055 270.543L288.172 270.171L288.726 269.988C288.811 269.96 288.93 269.925 288.986 269.897L289.176 269.827C289.682 269.63 290.096 269.377 290.433 269.075C290.77 268.766 291.023 268.394 291.227 267.944C291.424 267.488 291.557 266.947 291.627 266.364C291.676 265.929 291.683 265.465 291.655 264.988C291.353 265.023 291.037 265.051 290.7 265.051C290.335 265.051 289.949 265.023 289.548 264.966C288.172 264.763 287.076 264.215 286.254 263.646C284.358 265.254 283.037 266.273 282.939 266.35L282.363 266.793L281.633 266.828C281.485 266.835 281.331 266.842 281.183 266.842C276.323 266.842 270.36 263.197 269.678 262.768L268.583 262.08V260.787C268.583 260.415 268.674 259.966 268.814 259.488C268.793 259.565 268.758 259.65 268.744 259.727C267.55 259.355 267.389 259.228 265.597 258.238C265.597 258.238 265.597 258.238 265.527 258.196C265.555 258.21 265.576 258.224 265.597 258.238C265.597 258.238 265.597 258.238 265.668 258.273C263.701 257.219 261.868 255.885 260.119 254.459C258.447 253.103 256.902 251.607 255.378 250.09C255.954 251.179 256.544 252.254 257.155 253.321C258.363 255.414 259.634 257.472 261.018 259.488C261.713 260.485 262.43 261.497 263.202 262.466C263.975 263.435 264.762 264.419 265.675 265.339C264.403 265.016 263.209 264.426 262.079 263.758C260.941 263.091 259.88 262.311 258.862 261.476C256.839 259.79 255.055 257.837 253.468 255.758C251.894 253.658 250.574 251.404 249.338 249.114C248.073 246.705 247.118 244.183 246.36 241.648C244.892 236.556 244.133 231.358 243.887 226.154C243.754 223.548 243.761 220.935 243.922 218.329C244.084 215.716 244.344 213.104 244.821 210.498C245.074 209.191 245.334 207.892 245.692 206.593C246.029 205.293 246.43 203.987 246.943 202.694C247.441 201.402 248.045 200.11 248.832 198.838C249.015 198.522 249.232 198.199 249.457 197.876C249.682 197.574 249.907 197.272 250.131 196.991C250.588 196.429 251.051 195.903 251.522 195.411C253.404 193.423 255.392 191.752 257.394 190.115C259.403 188.493 261.439 186.947 263.511 185.465C265.485 184.047 267.48 182.677 269.482 181.328C266.63 181.321 263.785 181.328 260.934 181.314L253.559 181.413L249.871 181.469L246.184 181.574L238.809 181.792L231.441 182.157L227.754 182.319L224.073 182.565C221.622 182.733 219.164 182.888 216.706 183.028C219.15 182.747 221.594 182.48 224.045 182.228L227.719 181.841L231.399 181.532L238.767 180.984L246.142 180.591L249.829 180.401L253.524 180.296L260.913 180.106C264.389 180.092 267.859 180.071 271.336 180.085C272.93 179.032 274.532 177.999 276.182 177.037C277.945 176.011 279.75 175.063 281.59 174.171L280.902 174.08C278.886 173.813 276.87 173.602 274.855 173.342L271.835 172.97L268.807 172.633L262.753 171.952C258.714 171.558 254.676 171.102 250.63 170.772C246.591 170.343 242.532 170.126 238.479 169.76C246.612 169.873 254.739 170.287 262.844 170.962C269.805 171.559 276.751 172.303 283.676 173.167C285.755 172.24 287.87 171.376 290.117 170.744C289.19 171.755 288.228 172.703 287.244 173.616L293.144 174.431C295.16 174.712 297.169 175 299.178 175.316C303.195 175.927 307.213 176.573 311.223 177.262C319.237 178.631 327.23 180.169 335.167 181.932C331.15 181.307 327.139 180.647 323.121 180.064L311.069 178.245C307.051 177.669 303.034 177.051 299.009 176.51C294.992 175.927 290.967 175.393 286.935 174.86L286.015 174.74C285.531 175.176 285.039 175.604 284.547 176.033C282.876 177.472 281.169 178.849 279.434 180.184C283.108 180.261 286.781 180.373 290.454 180.507L297.836 180.865C300.295 180.998 302.753 181.174 305.211 181.336C307.669 181.504 310.121 181.715 312.579 181.904C315.03 182.115 317.481 182.333 319.933 182.565C322.384 182.832 324.828 183.084 327.272 183.379C329.717 183.653 332.161 183.976 334.591 184.342C329.689 183.899 324.786 183.499 319.877 183.183L312.516 182.698C310.057 182.565 307.606 182.417 305.148 182.305C296.165 181.862 287.174 181.56 278.184 181.42C279.933 185.711 282.489 191.014 284.449 192.756C287.947 195.861 310.76 205.715 326.092 205.314C340.154 204.942 352.073 192.924 353.541 191.393C354.342 190.038 355.753 187.502 357.327 184.63C356.962 184.644 356.561 184.658 356.119 184.658L356.084 184.686ZM248.425 260.865C249.296 261.743 250.11 262.656 250.918 263.562C251.719 264.468 252.505 265.381 253.264 266.28L254.402 267.586C254.633 267.839 254.858 268.078 255.062 268.289L255.771 268.492L256.944 268.816C257.338 268.921 257.724 269.026 258.124 269.125C258.518 269.23 258.911 269.328 259.304 269.419C260.878 269.813 262.458 270.178 264.045 270.494C265.633 270.796 267.227 271.077 268.864 271.26C270.493 271.421 272.137 271.485 273.949 271.428C272.565 272.594 270.844 273.332 269.074 273.816C267.304 274.273 265.478 274.448 263.666 274.455L262.31 274.42C261.861 274.399 261.418 274.343 260.969 274.308C260.519 274.273 260.077 274.21 259.634 274.139C259.192 274.083 258.749 273.999 258.307 273.915C257.429 273.746 256.558 273.542 255.694 273.297C255.266 273.184 254.83 273.044 254.409 272.903C253.973 272.763 253.573 272.608 253.095 272.426L252.59 272.229L252.316 271.948C251.74 271.351 251.325 270.803 250.96 270.262C250.581 269.721 250.244 269.188 249.921 268.647L249.45 267.832L249.008 267.01C248.706 266.463 248.446 265.901 248.179 265.346C247.659 264.222 247.167 263.084 246.746 261.904C246.317 260.731 245.938 259.537 245.671 258.28C246.655 259.102 247.554 259.973 248.418 260.858L248.425 260.865ZM322.524 186.905L310.514 186.926L298.503 186.912C294.5 186.898 290.496 186.912 286.479 186.842C290.468 186.385 294.472 186.091 298.482 185.915C299.487 185.859 300.484 185.824 301.488 185.795L304.495 185.711C306.496 185.676 308.505 185.655 310.514 185.648C312.523 185.655 314.524 185.676 316.526 185.711C318.528 185.767 320.537 185.81 322.538 185.901C326.542 186.076 330.552 186.322 334.542 186.751C330.531 186.849 326.521 186.877 322.517 186.891L322.524 186.905ZM275.072 149.778C275.22 149.441 275.346 149.083 275.501 148.76C275.789 148.085 276.098 147.432 276.435 146.807C276.772 146.175 277.137 145.564 277.524 144.967C277.868 144.447 278.24 143.934 278.612 143.443C278.626 143.38 278.647 143.309 278.662 143.239C278.718 143.007 278.774 142.761 278.837 142.516C278.957 142.017 279.097 141.511 279.252 141.005C279.582 139.987 279.968 138.955 280.621 137.915C280.93 138.449 281.148 138.983 281.331 139.523C281.513 140.064 281.647 140.598 281.752 141.139C281.857 141.68 281.928 142.228 281.956 142.782C281.977 143.063 281.984 143.344 281.977 143.632C281.977 143.92 281.949 144.229 281.892 144.595L281.857 144.826L281.633 145.199C281.239 145.852 280.818 146.456 280.347 147.039C279.877 147.622 279.364 148.17 278.802 148.682C278.233 149.188 277.622 149.666 276.927 150.073C276.583 150.277 276.217 150.459 275.824 150.607C275.445 150.754 274.995 150.867 274.574 150.853C274.784 150.473 274.911 150.129 275.058 149.778H275.072ZM274.806 158.312C274.496 158.361 274.202 158.403 273.907 158.431C273.597 158.431 273.288 158.417 273 158.382C273.942 157.666 274.651 156.886 275.388 156.099L277.552 153.746C278.268 152.96 279.013 152.194 279.75 151.429C280.417 150.74 281.12 150.059 281.794 149.399C281.815 149.315 281.843 149.223 281.857 149.118C281.921 148.83 281.984 148.514 282.033 148.191L282.349 146.182C282.581 144.805 282.82 143.401 283.276 141.954C283.992 143.295 284.414 144.686 284.737 146.112C284.885 146.828 284.997 147.552 285.06 148.303C285.081 148.682 285.102 149.069 285.088 149.476C285.088 149.673 285.053 149.905 285.039 150.115C285.039 150.214 285.011 150.347 284.983 150.48C284.955 150.607 284.934 150.74 284.899 150.867L284.835 151.12L284.554 151.464C283.81 152.37 283.058 153.185 282.23 153.957C281.401 154.73 280.523 155.453 279.575 156.106C278.633 156.76 277.608 157.336 276.519 157.785C275.978 158.01 275.396 158.185 274.813 158.319L274.806 158.312ZM320.909 175.527C318.528 174.712 316.154 173.869 313.759 173.097C312.565 172.696 311.371 172.303 310.177 171.917C308.976 171.53 307.789 171.13 306.581 170.779L302.978 169.655L299.353 168.594C298.574 168.356 297.787 168.131 297 167.913C296.186 168.082 295.371 168.257 294.549 168.419C292.913 168.735 291.262 169.023 289.604 169.262C287.94 169.5 286.268 169.704 284.561 169.795C286.1 169.058 287.68 168.447 289.267 167.899C290.461 167.492 291.669 167.127 292.884 166.789C292.618 166.719 292.351 166.642 292.084 166.572C287.223 165.272 282.314 164.17 277.376 163.102C278.626 163.25 279.884 163.397 281.134 163.566C282.391 163.713 283.634 163.931 284.878 164.142C286.121 164.366 287.371 164.563 288.607 164.816L292.316 165.609C293.201 165.813 294.093 166.031 294.978 166.242C296.319 165.912 297.668 165.609 299.037 165.371C299.873 165.23 300.709 165.097 301.559 165.005C302.409 164.907 303.273 164.851 304.2 164.886H304.452L304.593 164.984C305.485 165.581 306.335 166.206 307.15 166.888C307.55 167.239 307.957 167.576 308.337 167.955C308.716 168.328 309.088 168.714 309.418 169.128L308.014 168.412L306.609 167.724L305.204 167.056L304.059 166.522C303.722 166.565 303.399 166.6 303.041 166.677C302.647 166.74 302.247 166.818 301.847 166.909C301.446 166.986 301.046 167.063 300.639 167.162C300.266 167.246 299.894 167.316 299.522 167.4C302.015 168.068 304.488 168.791 306.946 169.564C308.154 169.929 309.348 170.343 310.549 170.737C311.75 171.137 312.951 171.523 314.138 171.959C316.519 172.802 318.893 173.673 321.239 174.6C325.938 176.447 330.588 178.435 335.104 180.696C330.377 178.912 325.643 177.192 320.895 175.527H320.909ZM333.2 176.7C332.421 175.99 331.592 175.337 330.77 174.684C330.349 174.368 329.92 174.059 329.506 173.736C329.085 173.427 328.642 173.132 328.214 172.83C327.792 172.521 327.343 172.24 326.907 171.945C326.472 171.65 326.029 171.362 325.58 171.095L324.245 170.252L322.876 169.458C321.984 168.889 321.028 168.44 320.115 167.892L317.313 166.382C316.365 165.89 315.416 165.413 314.482 164.879C315.522 165.153 316.54 165.483 317.559 165.813C318.556 166.199 319.567 166.565 320.551 167C322.51 167.878 324.435 168.854 326.254 170.013C326.711 170.294 327.16 170.596 327.603 170.912C328.038 171.228 328.502 171.509 328.923 171.854C329.344 172.191 329.773 172.514 330.194 172.858C330.609 173.209 331.016 173.56 331.409 173.925C331.796 174.305 332.196 174.67 332.568 175.063C332.934 175.464 333.313 175.85 333.65 176.271C334.338 177.1 334.991 177.971 335.476 178.933C334.767 178.133 334.001 177.395 333.2 176.7Z" fill="#00BCE7"/>
<path d="M225.73 275.13H225.716L225.835 275.116C225.807 275.116 225.765 275.116 225.73 275.13Z" fill="#00BCE7"/>
<path d="M270.731 114.295L270.639 114.182C270.639 114.182 270.555 114.154 270.569 114.161C270.569 114.161 270.569 114.182 270.583 114.197C270.611 114.218 270.625 114.239 270.668 114.26C270.689 114.274 270.71 114.288 270.731 114.295Z" fill="#00BCE7"/>
<path d="M267.921 118.116L267.387 116.824C267.359 116.739 267.324 116.655 267.296 116.564C266.804 117.35 266.32 118.13 265.821 118.91C265.161 119.928 264.522 120.939 263.777 121.944C263.693 122.063 263.566 122.211 263.447 122.344C263.321 122.464 263.194 122.569 263.061 122.66C262.801 122.843 262.527 122.997 262.26 123.145C261.719 123.433 261.164 123.672 260.595 123.882C261.094 123.545 261.572 123.18 262.014 122.787C262.45 122.386 262.878 121.986 263.033 121.501C263.482 120.434 263.868 119.282 264.255 118.158C264.592 117.168 264.915 116.177 265.238 115.187C265.062 115.243 264.887 115.306 264.704 115.37C263.328 115.84 261.895 116.339 260.448 116.788C259.724 117.02 258.994 117.238 258.263 117.449L257.161 117.758L256.606 117.905L255.981 118.046C254.295 118.453 252.659 118.558 251.057 118.58C250.741 118.58 250.432 118.579 250.123 118.572L250.762 119.338L251.493 120.328C251.745 120.659 251.956 121.003 252.181 121.347C252.406 121.691 252.63 122.028 252.834 122.386C253.684 123.784 254.414 125.231 255.096 126.699C255.433 127.436 255.756 128.181 256.058 128.932C256.135 129.122 256.206 129.312 256.283 129.501C256.444 129.501 256.613 129.501 256.774 129.501C257.315 129.48 257.863 129.424 258.404 129.333C259.486 129.157 260.546 128.855 261.544 128.434C262.548 128.012 263.482 127.464 264.346 126.811C265.203 126.144 265.983 125.378 266.671 124.522L268.125 122.71C268.567 121.115 267.921 118.116 267.921 118.116Z" fill="white"/>
<path d="M291.161 259.221C290.768 259.6 290.375 259.959 289.988 260.317C290.059 260.331 290.122 260.352 290.199 260.359C291.014 260.485 291.681 260.246 292.06 260.064C293.409 258.75 294.764 257.353 296.064 255.948C297.433 254.466 298.761 252.949 300.004 251.39C301.247 249.837 302.427 248.236 303.397 246.613C303.586 246.297 303.762 245.974 303.93 245.658L300.952 246.684C299.625 250.069 296.345 254.276 291.154 259.214L291.161 259.221Z" fill="white"/>
<path d="M323.639 209.998C318.21 209.816 312.261 208.678 306.564 207.098C306.115 210.476 305.244 214.627 305.111 215.238L305.054 215.512L304.935 215.765C303.516 218.715 299.351 224.313 295.769 228.892C300.552 226.757 306.22 224.039 309.542 221.77C310.245 221.222 318.055 215.154 323.639 210.005V209.998Z" fill="white"/>
<path d="M296.78 244.512V243.627C296.099 244.084 295.417 244.533 294.736 244.983C292.805 246.24 290.852 247.469 288.871 248.663C286.884 249.857 284.854 250.995 282.754 252.07L281.159 252.856L279.502 253.587C278.94 253.826 278.336 254.029 277.753 254.247C277.472 254.367 277.121 254.437 276.805 254.528C275.505 256.439 274.318 258.426 273.679 259.712C275.604 260.73 278.483 262.015 280.689 262.17C285.191 258.609 295.158 249.879 296.787 244.519L296.78 244.512Z" fill="white"/>
<path d="M312.339 225.501L312.234 225.578C310.871 226.519 309.157 227.509 307.296 228.507L307.64 228.598C311.756 226.428 317.593 223.197 320.142 221.062C322.502 219.081 327.243 213.778 330.931 209.529C330.853 209.543 330.783 209.557 330.706 209.564C325.389 215.415 312.88 225.093 312.339 225.508V225.501Z" fill="white"/>
<path d="M265.554 258.252C265.554 258.252 265.512 258.224 265.484 258.21C265.561 258.252 265.554 258.252 265.554 258.252Z" fill="white"/>
<path d="M268.701 259.733C268.722 259.656 268.75 259.572 268.771 259.494C268.771 259.487 268.771 259.48 268.771 259.473C268.799 259.375 268.827 259.276 268.862 259.178C268.926 258.995 268.996 258.806 269.073 258.616C269.108 258.532 269.136 258.455 269.171 258.37C269.284 258.096 269.417 257.809 269.558 257.521C269.6 257.436 269.642 257.352 269.684 257.261C269.796 257.043 269.902 256.818 270.028 256.593C270.091 256.481 270.155 256.362 270.218 256.249C270.33 256.046 270.443 255.842 270.562 255.638C270.632 255.519 270.695 255.399 270.766 255.287C270.892 255.069 271.026 254.851 271.159 254.627C271.222 254.528 271.278 254.43 271.342 254.325C271.538 254.009 271.742 253.693 271.946 253.377C271.384 253.089 270.829 252.801 270.274 252.513C268.933 251.81 267.591 251.087 266.264 250.335C264.929 249.584 263.609 248.811 262.288 247.961C261.628 247.533 260.968 247.09 260.293 246.578C259.956 246.325 259.612 246.044 259.261 245.728C259.17 245.651 259.078 245.552 258.987 245.461C258.896 245.37 258.804 245.285 258.699 245.159C258.594 245.039 258.502 244.934 258.397 244.801C258.278 244.639 258.165 244.463 258.06 244.295L257.533 243.431L257.898 242.385C258.074 241.879 258.257 241.331 258.418 240.797C258.587 240.263 258.741 239.723 258.889 239.196C259.036 238.662 259.163 238.142 259.275 237.636C259.275 237.629 259.275 237.622 259.275 237.615L253.825 234.434L252.16 233.464L252.792 231.645L254.092 227.944C253.642 227.705 253.192 227.452 252.75 227.185C251.696 226.553 250.664 225.872 249.681 225.085C249.667 225.078 249.66 225.064 249.646 225.057C249.646 225.359 249.646 225.668 249.653 225.97C249.765 230.29 250.179 234.623 251.085 238.802C251.296 239.189 251.5 239.582 251.71 239.961C252.237 240.924 252.778 241.879 253.34 242.82C254.464 244.709 255.623 246.578 256.88 248.383C258.137 250.188 259.437 251.972 260.876 253.643C262.316 255.308 263.854 256.909 265.61 258.293C265.547 258.258 265.54 258.258 265.54 258.258C267.331 259.241 267.493 259.375 268.687 259.747L268.701 259.733Z" fill="white"/>
<path d="M206.203 337.015L199.882 335.231C202.2 336.186 204.328 336.811 206.203 337.015Z" fill="black"/>
<path d="M369.933 169.795C369.294 167.245 357.108 151.878 354.748 149.911C352.296 147.867 343.194 141.033 342.042 140.162L334.252 132.78C326.913 122.42 312.079 111.182 304.086 105.128C302.21 103.702 300.721 102.578 300.089 102.023C298.586 100.71 296.809 96.4817 295.383 93.0823C293.986 89.753 292.771 86.8735 291.422 85.3001C288.493 81.8866 262.239 63.9341 257.54 61.7919C255.229 60.7383 249.21 59.4951 239.594 57.5496C230.688 55.7515 220.602 53.7075 215.812 51.9656C206.667 48.6434 186.067 39.4004 185.863 39.3091L185.624 39.2036L185.364 39.1544C177.02 37.4828 150.513 31.1755 150.246 31.1123L149.775 31L149.298 31.0842C130.671 34.3924 108.223 50.6453 105.575 52.6049L86.3164 54.3045L42.2077 58.2168L41.9338 58.2379L41.6528 58.3361C40.3815 58.7716 39.1102 59.6214 38.2463 60.7522C37.3684 61.876 36.8908 63.1474 36.6309 64.3273C36.371 65.5214 36.3148 66.6662 36.3359 67.7759C36.364 68.8786 36.4764 69.9463 36.6449 70.9858C36.9821 73.0648 37.5018 75.0525 38.1269 76.9911C38.436 77.9603 38.7731 78.9156 39.1384 79.8568C39.5036 80.812 39.8688 81.7179 40.3183 82.7012L40.234 82.5047C40.4026 83.0034 40.7959 83.509 41.1822 83.7829C41.5685 84.0709 41.9057 84.1903 42.1726 84.2745C42.4465 84.3518 42.6572 84.38 42.8398 84.4011C43.0295 84.4222 43.184 84.4222 43.3315 84.4222C43.9074 84.4222 44.3148 84.3589 44.7151 84.3027C45.3613 84.2114 45.9302 84.1061 46.45 84.0358C46.3727 84.2185 46.2955 84.4011 46.2112 84.5907C45.9302 85.2369 45.6282 85.9112 45.3473 86.7049C45.2068 87.1123 45.0663 87.5337 44.968 88.1096C44.9188 88.4046 44.8767 88.7276 44.9118 89.2052C44.9329 89.444 44.968 89.711 45.0804 90.0411C45.1366 90.2097 45.2138 90.3783 45.3122 90.5609C45.3613 90.6452 45.4175 90.7364 45.4807 90.8277L45.5931 90.9752C46.0496 91.5371 46.5132 92.099 46.9838 92.6539C50.7344 97.0507 54.7239 101.124 58.7836 105.121L60.3148 106.61L60.3639 106.659C60.406 106.701 60.4904 106.779 60.5606 106.835C60.7011 106.947 60.8415 107.045 60.968 107.116C61.2278 107.27 61.4666 107.362 61.6703 107.425C62.0777 107.551 62.4008 107.593 62.6817 107.621C63.2436 107.671 63.6861 107.65 64.1075 107.621C64.9363 107.565 65.6598 107.46 66.3411 107.383C66.5448 107.361 66.7484 107.333 66.9451 107.312C66.8327 107.572 66.7063 107.86 66.5799 108.183C66.4254 108.591 66.2568 109.047 66.1584 109.679C66.1093 109.988 66.0812 110.354 66.1233 110.775C66.1584 111.182 66.2919 111.667 66.5237 112.095C66.9732 112.952 67.7388 113.486 68.3639 113.746C69.003 114.013 69.5439 114.097 70.0285 114.146C70.5131 114.188 70.9556 114.188 71.37 114.174C72.2058 114.139 72.9574 114.034 73.6808 113.936C74.4043 113.823 75.0996 113.732 75.7598 113.612C76.399 113.493 77.0171 113.318 77.5298 113.233C77.4525 113.36 77.3683 113.486 77.284 113.612C77.0663 113.943 76.8204 114.273 76.5676 114.61L1.20605 116.266L82.5517 131.185C81.4841 135.062 80.5149 142.304 79.672 146.238C78.6957 150.824 77.8739 155.446 77.1997 160.088C75.8862 169.381 75.1558 178.757 75.0645 188.148L75.0013 194.364L78.8502 189.475L79.3841 188.801C79.1242 197.609 79.5948 206.445 80.845 215.175C82.4042 226.132 85.1716 236.913 89.0908 247.266C93.003 257.619 98.053 267.551 104.178 276.787C110.295 286.023 117.473 294.578 125.656 302.093L127.272 303.575L128.81 302.002L132.293 298.448C137.737 303.35 143.419 307.993 149.319 312.334C155.809 317.117 162.573 321.528 169.54 325.58C176.522 329.612 183.714 333.278 191.089 336.537C198.464 339.796 206.014 342.655 213.698 345.099L222.794 348L216.023 341.236C215.524 340.737 214.962 340.14 214.442 339.572C213.916 338.989 213.396 338.406 212.876 337.809C211.851 336.615 210.846 335.392 209.87 334.142C207.917 331.649 206.084 329.064 204.356 326.416C200.908 321.106 197.902 315.508 195.507 309.672C193.112 303.842 191.313 297.767 190.309 291.579C189.529 286.803 189.242 281.963 189.452 277.145L192.613 279.631L195.12 281.598L196.244 278.592C196.279 278.487 196.364 278.29 196.434 278.128L196.659 277.616C196.813 277.271 196.982 276.927 197.157 276.583C197.501 275.902 197.881 275.228 198.281 274.567C199.082 273.254 199.981 272.004 200.978 270.845C202.959 268.534 205.333 266.609 208.002 265.366C210.664 264.109 213.614 263.554 216.599 263.681C216.922 263.695 217.238 263.716 217.561 263.744C217.61 263.814 217.659 263.891 217.709 263.962C217.821 264.13 217.926 264.292 218.039 264.46L211.394 267.937L207.145 270.163L211.521 272.137C213.768 273.149 216.03 274.202 218.249 275.277C218.903 275.593 219.549 275.916 220.195 276.239C219.858 276.316 219.521 276.401 219.183 276.478C216.725 277.075 214.302 277.707 211.865 278.353L206.499 279.786L211.254 282.595C214.836 284.71 218.551 286.529 222.386 288.004C226.221 289.443 230.126 290.687 234.081 291.656C238.035 292.625 242.025 293.412 246.035 294.009C248.044 294.304 250.053 294.564 252.075 294.767C253.087 294.873 254.098 294.964 255.11 295.048C256.135 295.126 257.125 295.196 258.2 295.238L258.495 295.252L258.706 295.203C259.127 295.097 259.598 294.999 259.963 294.859L260.539 294.655L261.066 294.43C261.768 294.128 262.407 293.798 263.025 293.454C264.261 292.766 265.42 292.021 266.544 291.256C268.785 289.717 270.899 288.088 272.964 286.416C275.029 284.745 277.045 283.024 279.032 281.282C280.886 279.646 282.706 278.002 284.518 276.295L288.5 274.968L289.617 274.595L290.172 274.413C290.27 274.378 290.34 274.357 290.467 274.314L290.825 274.181C291.78 273.816 292.743 273.261 293.564 272.502C294.386 271.751 295.032 270.796 295.468 269.819C295.896 268.836 296.128 267.832 296.233 266.862C296.339 265.893 296.318 264.945 296.233 264.032C296.184 263.582 296.121 263.14 296.044 262.704C297.238 261.524 298.376 260.337 299.506 259.108C300.932 257.563 302.323 255.969 303.657 254.311C304.992 252.646 306.27 250.918 307.422 249.001C307.991 248.039 308.532 247.027 308.974 245.883C309.087 245.595 309.199 245.307 309.283 244.991L309.417 244.52C309.459 244.358 309.487 244.183 309.522 244.014C309.67 243.354 309.719 242.546 309.62 241.696L309.311 238.873L306.551 239.821L301.445 241.584V236.948L305.238 235.073C305.778 234.806 318.597 228.436 323.141 224.629C327.236 221.194 337.132 209.479 339.225 206.993C349.55 202.582 356.693 194.855 357.101 194.406L357.255 194.23L357.374 194.034C359.917 189.791 369.329 172.204 369.729 171.46L370.151 170.666L369.933 169.795ZM334.92 142.206C335.791 142.361 336.669 142.543 337.54 142.733C337.729 142.775 337.919 142.824 338.116 142.866L338.93 143.639L339.134 143.814C339.232 143.892 349.29 151.435 351.763 153.493C353.926 155.298 362.86 166.873 365.037 170.343C364.855 170.687 364.616 171.122 364.363 171.6C362.544 170.041 359.826 167.59 357.353 165.3L357.016 164.991L356.567 164.899C354.193 164.422 347.899 164.696 345.54 164.822C345.525 164.738 345.511 164.654 345.497 164.569C345.287 163.432 345.062 162.301 344.809 161.17C344.57 160.039 344.296 158.908 344.008 157.785C343.425 155.544 342.73 153.261 341.662 151.14C341.143 150.073 340.511 149.061 339.78 148.134C339.401 147.677 339.008 147.235 338.572 146.835C338.137 146.434 337.673 146.055 337.153 145.774C337.799 146.757 338.368 147.727 338.895 148.731C339.429 149.721 339.9 150.733 340.342 151.758C340.777 152.784 341.136 153.844 341.431 154.926C341.627 155.628 341.803 156.345 341.964 157.068C341.915 156.914 341.866 156.766 341.817 156.612L341.768 156.443L341.669 156.302C341.311 155.762 340.96 155.439 340.609 155.108C340.258 154.799 339.907 154.519 339.555 154.259C338.853 153.732 338.144 153.268 337.434 152.819C336.008 151.92 334.561 151.098 333.101 150.304C331.647 149.511 330.179 148.745 328.697 148.001C327.215 147.263 325.74 146.54 324.23 145.837L323.935 145.697H323.619C322.586 145.683 321.554 145.683 320.521 145.69C319.58 145.704 318.632 145.746 317.684 145.781L319.397 145.205C322.916 144.039 326.442 142.894 329.975 141.763C330.72 141.742 331.52 141.784 332.321 141.869C333.185 141.953 334.056 142.094 334.934 142.241L334.92 142.206ZM34.9437 119.281H174.379L130.432 98.1395L264.409 101.785C264.437 101.855 264.465 101.925 264.493 102.002C264.718 102.614 264.901 103.267 265.069 103.934C265.392 105.269 265.638 106.659 265.842 108.05C265.905 108.485 265.961 108.928 266.017 109.37C265.757 109.419 265.519 109.476 265.28 109.539C264.444 109.757 263.7 109.995 262.969 110.234C261.515 110.726 260.124 111.232 258.741 111.744L256.669 112.503L255.636 112.875L255.124 113.065L254.66 113.212C254.351 113.304 254.063 113.423 253.733 113.493L252.764 113.732C252.096 113.865 251.429 113.999 250.727 114.097C249.343 114.308 247.917 114.469 246.463 114.61C243.556 114.905 240.578 115.102 237.487 115.502C238.878 116.225 240.339 116.759 241.821 117.209C243.303 117.651 244.813 118.002 246.358 118.227C246.449 118.241 246.534 118.248 246.625 118.262C247.082 118.796 247.503 119.372 247.896 119.969L248.465 120.896L248.978 121.872C249.154 122.188 249.301 122.533 249.456 122.87C249.61 123.207 249.765 123.537 249.905 123.881C250.481 125.244 250.959 126.663 251.373 128.088C251.457 128.376 251.535 128.664 251.612 128.959C251.443 128.945 251.275 128.924 251.106 128.91C249.722 128.77 248.346 128.657 246.969 128.552C244.216 128.334 241.47 128.159 238.723 127.983C233.231 127.646 227.745 127.351 222.26 127.077C214.773 126.705 196.223 125.869 196.223 125.869L221.81 147.558L34.9507 119.295L34.9437 119.281ZM303.938 245.665C303.77 245.981 303.594 246.304 303.404 246.62C302.435 248.243 301.255 249.844 300.012 251.396C298.762 252.948 297.434 254.466 296.072 255.955C294.779 257.359 293.417 258.757 292.068 260.07C291.689 260.253 291.022 260.492 290.207 260.365C290.137 260.351 290.066 260.337 289.996 260.323C290.383 259.965 290.776 259.6 291.169 259.228C296.36 254.29 299.64 250.083 300.967 246.697L303.945 245.672L303.938 245.665ZM262.969 234.364L257.849 231.372L259.19 227.53L259.907 225.479L257.891 224.608C257.708 224.531 257.456 224.411 257.231 224.299C256.999 224.179 256.76 224.067 256.528 223.948C256.065 223.702 255.601 223.449 255.152 223.175C254.253 222.634 253.382 222.058 252.588 221.419C251.801 220.78 251.057 220.106 250.446 219.389C250.228 219.122 250.031 218.856 249.842 218.582C250.01 216.222 250.284 213.876 250.685 211.572C251.106 209.24 251.661 206.929 252.448 204.822C252.827 203.762 253.276 202.757 253.796 201.879C254.26 201.043 254.948 200.215 255.714 199.358C255.889 199.168 256.072 198.978 256.254 198.789C262.014 203.291 267.808 208.812 268.546 211.242C268.581 212.71 268.806 219.733 269.789 227.832C270.997 237.756 272.851 245.138 275.31 249.851C274.355 249.366 273.392 248.875 272.437 248.376C271.124 247.688 269.824 246.985 268.546 246.262C267.268 245.538 266.003 244.801 264.802 244.028C264.205 243.642 263.622 243.249 263.103 242.855C262.976 242.757 262.857 242.666 262.737 242.567C262.779 242.441 262.822 242.315 262.864 242.181C263.046 241.598 263.222 241.015 263.383 240.418C263.552 239.821 263.7 239.21 263.833 238.571C263.959 237.918 264.1 237.293 264.114 236.358L264.142 235.031L262.962 234.343L262.969 234.364ZM276.799 254.522C277.115 254.43 277.466 254.36 277.747 254.241C278.33 254.023 278.934 253.819 279.496 253.58L281.153 252.85L282.748 252.063C284.848 250.989 286.878 249.851 288.865 248.657C290.846 247.463 292.799 246.234 294.73 244.976C295.418 244.527 296.1 244.078 296.774 243.621V244.506C295.145 249.865 285.178 258.595 280.676 262.156C278.47 262.002 275.591 260.717 273.666 259.698C274.298 258.413 275.492 256.425 276.792 254.515L276.799 254.522ZM301.332 234.785L297.764 237.3C295.952 238.578 294.063 239.849 292.188 241.085C290.305 242.314 288.402 243.516 286.477 244.667C284.56 245.819 282.614 246.908 280.655 247.905L279.791 248.327C274.853 239.772 273.364 218.743 273.21 210.883V210.659L273.16 210.441C272.795 208.755 271.489 205.784 264.353 199.477C262.632 197.96 260.96 196.583 259.633 195.537C260.054 195.165 260.476 194.785 260.904 194.42C262.758 192.819 264.69 191.28 266.642 189.749C268.595 188.225 270.59 186.729 272.599 185.254C273.125 184.868 273.652 184.489 274.186 184.102C275.851 188.092 278.576 193.844 281.315 196.281C283.591 198.304 292.047 202.511 302.042 205.742C301.747 208.327 301.002 212.162 300.616 213.988C298.439 218.251 289.624 229.23 286.344 233.17L280.514 240.186L288.999 236.822C289.42 236.654 295.868 234.09 302.302 231.021L301.332 234.785ZM295.77 228.885C299.359 224.299 303.524 218.708 304.936 215.758L305.055 215.505L305.111 215.231C305.238 214.62 306.116 210.476 306.565 207.091C312.261 208.671 318.203 209.816 323.64 209.992C318.056 215.14 310.246 221.215 309.543 221.756C306.221 224.025 300.56 226.743 295.77 228.878V228.885ZM320.142 221.054C317.592 223.189 311.756 226.42 307.64 228.59L307.296 228.499C309.157 227.502 310.864 226.504 312.233 225.57L312.339 225.493C312.879 225.078 325.389 215.4 330.706 209.549C330.783 209.535 330.853 209.521 330.93 209.514C327.243 213.77 322.509 219.066 320.142 221.047V221.054ZM353.497 191.428C352.029 192.966 340.11 204.984 326.049 205.349C310.716 205.749 287.896 195.895 284.405 192.79C282.446 191.049 279.889 185.746 278.14 181.454C277.304 181.44 276.462 181.419 275.626 181.412C273.561 181.363 271.496 181.356 269.424 181.349C267.422 182.698 265.427 184.067 263.454 185.486C261.382 186.968 259.345 188.513 257.336 190.136C255.334 191.772 253.347 193.444 251.464 195.431C250.994 195.93 250.53 196.45 250.074 197.012C249.849 197.293 249.624 197.588 249.399 197.897C249.175 198.213 248.957 198.543 248.774 198.859C247.988 200.13 247.391 201.423 246.885 202.715C246.372 204.007 245.979 205.314 245.635 206.613C245.283 207.913 245.017 209.219 244.764 210.518C244.286 213.124 244.026 215.737 243.865 218.35C243.71 220.963 243.703 223.568 243.83 226.174C244.075 231.386 244.834 236.576 246.302 241.668C247.068 244.204 248.016 246.718 249.28 249.135C250.516 251.424 251.844 253.679 253.41 255.779C254.997 257.865 256.781 259.818 258.804 261.496C259.823 262.332 260.883 263.112 262.021 263.779C263.152 264.439 264.346 265.036 265.617 265.359C264.704 264.439 263.917 263.456 263.145 262.487C262.372 261.517 261.656 260.513 260.96 259.509C259.577 257.493 258.305 255.435 257.097 253.342C256.486 252.274 255.896 251.192 255.32 250.111C256.844 251.635 258.397 253.124 260.061 254.48C261.81 255.905 263.643 257.24 265.61 258.293C263.854 256.91 262.316 255.308 260.876 253.644C259.436 251.979 258.137 250.188 256.88 248.383C255.622 246.578 254.463 244.703 253.34 242.82C252.778 241.879 252.237 240.924 251.71 239.962C251.499 239.582 251.289 239.189 251.085 238.803C250.179 234.631 249.765 230.297 249.652 225.971C249.652 225.669 249.652 225.359 249.645 225.057C249.659 225.064 249.666 225.078 249.68 225.086C250.664 225.872 251.696 226.553 252.75 227.186C253.192 227.452 253.635 227.698 254.091 227.944L252.792 231.646L252.16 233.465L253.824 234.434L259.275 237.616C259.275 237.616 259.275 237.63 259.275 237.637C259.169 238.142 259.036 238.669 258.888 239.196C258.741 239.73 258.586 240.264 258.418 240.797C258.249 241.331 258.074 241.879 257.898 242.385L257.533 243.431L258.06 244.295C258.165 244.471 258.277 244.639 258.397 244.801C258.502 244.941 258.593 245.04 258.699 245.159C258.804 245.286 258.895 245.363 258.987 245.461C259.078 245.553 259.176 245.651 259.261 245.728C259.612 246.044 259.956 246.325 260.293 246.578C260.967 247.084 261.628 247.533 262.288 247.962C263.608 248.811 264.936 249.584 266.263 250.336C267.598 251.087 268.932 251.811 270.274 252.513C270.836 252.808 271.39 253.096 271.945 253.377C271.742 253.693 271.545 254.009 271.341 254.325C271.278 254.423 271.222 254.522 271.159 254.627C271.025 254.845 270.892 255.07 270.765 255.287C270.695 255.407 270.625 255.526 270.562 255.639C270.442 255.842 270.33 256.046 270.218 256.25C270.154 256.369 270.091 256.481 270.028 256.594C269.908 256.818 269.796 257.036 269.684 257.261C269.642 257.345 269.592 257.437 269.557 257.521C269.417 257.816 269.29 258.097 269.171 258.371C269.136 258.455 269.108 258.532 269.073 258.617C268.995 258.806 268.925 258.996 268.862 259.178C268.827 259.277 268.799 259.375 268.771 259.473C268.771 259.48 268.771 259.488 268.771 259.495C268.63 259.972 268.539 260.422 268.539 260.794V262.086L269.635 262.775C270.316 263.203 276.279 266.848 281.139 266.848C281.294 266.848 281.441 266.848 281.589 266.834L282.319 266.799L282.895 266.357C282.987 266.286 284.307 265.261 286.21 263.653C287.032 264.221 288.128 264.769 289.505 264.973C289.905 265.029 290.291 265.057 290.656 265.057C290.994 265.057 291.303 265.029 291.612 264.994C291.64 265.465 291.626 265.928 291.584 266.371C291.52 266.961 291.387 267.494 291.183 267.951C290.98 268.4 290.727 268.78 290.39 269.082C290.052 269.384 289.638 269.637 289.132 269.833L288.943 269.904C288.887 269.925 288.767 269.967 288.683 269.995L288.128 270.178L287.011 270.55L282.544 272.039L282.052 272.2L281.666 272.558C279.805 274.314 277.866 276.077 275.928 277.784C273.982 279.498 272.009 281.177 270.007 282.792C268.005 284.407 265.968 285.981 263.882 287.407C262.843 288.116 261.789 288.79 260.743 289.373C260.223 289.661 259.696 289.935 259.19 290.146L258.811 290.307L258.46 290.427C258.291 290.497 258.158 290.525 258.024 290.553C257.189 290.511 256.311 290.455 255.447 290.392C254.47 290.314 253.501 290.23 252.525 290.125C250.579 289.928 248.634 289.675 246.695 289.387C242.818 288.811 238.976 288.053 235.176 287.119C231.384 286.191 227.668 285.004 224.037 283.642C222.253 282.954 220.511 282.195 218.804 281.366C219.289 281.247 219.78 281.12 220.265 281.001C221.466 280.706 222.667 280.425 223.854 280.172C224.149 280.109 224.444 280.046 224.732 279.99C225.027 279.926 225.308 279.877 225.582 279.835L225.786 279.8L225.954 279.779L226.123 279.758L226.207 279.744L226.425 279.716L226.537 279.695C226.579 279.688 226.6 279.688 226.678 279.667C226.804 279.631 226.938 279.589 227.064 279.54L227.155 279.505C227.212 279.477 227.275 279.449 227.331 279.414C227.443 279.35 227.563 279.273 227.668 279.196C227.78 279.105 227.844 279.062 228.012 278.873C228.153 278.711 228.279 278.515 228.377 278.318C228.476 278.114 228.539 277.925 228.574 277.721C228.616 277.517 228.623 277.306 228.616 277.103L228.602 276.955L228.588 276.864C228.581 276.808 228.567 276.752 228.553 276.689C228.525 276.576 228.49 276.457 228.448 276.351C228.427 276.302 228.399 276.239 228.385 276.197L228.342 276.113L228.251 275.951C228.097 275.698 228.04 275.649 227.942 275.522C227.78 275.34 227.654 275.221 227.549 275.129C227.436 275.031 227.345 274.961 227.247 274.883C226.888 274.609 226.586 274.42 226.284 274.23C225.982 274.048 225.694 273.872 225.399 273.71C224.824 273.38 224.248 273.078 223.679 272.776C222.541 272.179 221.403 271.617 220.265 271.063C219.422 270.655 218.572 270.255 217.73 269.862L222.435 267.396L224.423 266.539L223.433 264.271C223.306 263.983 223.194 263.744 223.075 263.498C222.955 263.245 222.836 263.006 222.716 262.768C222.471 262.29 222.218 261.819 221.958 261.356C221.438 260.422 220.883 259.523 220.328 258.617C219.738 257.739 219.176 256.84 218.558 255.983C217.926 255.133 217.329 254.262 216.669 253.44C214.084 250.104 211.233 246.978 208.142 244.12C205.059 241.261 201.814 238.578 198.323 236.253C194.896 233.858 191.201 231.856 187.429 230.128C188.209 230.824 188.996 231.498 189.782 232.165C190.562 232.84 191.37 233.472 192.114 234.188C192.866 234.891 193.638 235.565 194.397 236.246C194.783 236.576 195.148 236.941 195.507 237.3L196.609 238.36C198.098 239.751 199.489 241.24 200.908 242.68C201.617 243.396 202.263 244.183 202.959 244.92L203.984 246.037C204.321 246.409 204.644 246.803 204.975 247.182C206.611 249.05 208.177 250.975 209.701 252.92C207.812 251.754 205.909 250.61 203.984 249.486C201.076 247.8 198.133 246.171 195.064 244.674C193.519 243.937 191.953 243.235 190.267 242.617C189.424 242.315 188.553 242.027 187.591 241.816C187.106 241.71 186.594 241.619 186.011 241.584C185.716 241.563 185.407 241.556 185.055 241.584C184.704 241.612 184.325 241.661 183.868 241.802C183.426 241.949 182.892 242.202 182.422 242.659C181.944 243.108 181.621 243.726 181.473 244.253C181.326 244.787 181.312 245.251 181.333 245.637C181.354 245.939 181.396 246.213 181.452 246.466C181.41 246.445 181.375 246.423 181.333 246.395C178.86 245.026 176.36 243.712 173.839 242.455C171.317 241.191 168.753 239.997 166.176 238.859C163.584 237.735 160.971 236.667 158.323 235.684C153.027 233.718 147.612 232.067 142.091 230.873C139.331 230.276 136.543 229.819 133.747 229.475C130.945 229.159 128.135 228.998 125.333 229.019C128.1 229.475 130.833 230.03 133.537 230.676C136.234 231.358 138.903 232.116 141.544 232.952C146.818 234.652 151.981 236.646 157.045 238.866C162.109 241.092 167.082 243.509 171.963 246.1C174.407 247.4 176.817 248.748 179.198 250.139C180.385 250.841 181.572 251.551 182.745 252.274C183.903 252.998 185.097 253.742 186.2 254.473L196.209 261.152L189.249 251.277C188.328 249.97 187.45 248.636 186.776 247.337C186.629 247.042 186.488 246.747 186.369 246.466C186.425 246.48 186.474 246.487 186.53 246.501C187.184 246.662 187.9 246.88 188.609 247.147C190.049 247.674 191.51 248.334 192.957 249.036C195.865 250.427 198.745 252 201.596 253.63C204.448 255.259 207.271 256.959 210.067 258.701C210.453 258.94 210.832 259.185 211.219 259.431C209.421 259.782 207.651 260.351 205.993 261.138C202.636 262.711 199.749 265.078 197.417 267.803C196.244 269.166 195.205 270.62 194.277 272.137C193.877 272.79 193.505 273.458 193.154 274.139L188.876 270.781L185.568 268.19L185.119 272.362C184.409 279.006 184.62 285.749 185.695 292.316C186.769 298.89 188.666 305.303 191.187 311.428C193.709 317.559 196.848 323.403 200.444 328.938C202.242 331.705 204.16 334.395 206.197 336.994C206.435 337.303 206.688 337.605 206.934 337.914C202.207 336.207 197.536 334.339 192.943 332.302C185.723 329.113 178.678 325.524 171.844 321.577C165.017 317.615 158.4 313.282 152.03 308.618C145.66 303.954 139.549 298.932 133.726 293.608L132.097 292.12L130.559 293.693L127.103 297.24C119.862 290.378 113.435 282.637 107.893 274.307C101.944 265.366 97.0205 255.744 93.1996 245.7C89.3717 235.656 86.6676 225.184 85.1294 214.55C83.5842 203.909 83.219 193.107 83.9776 182.374L84.4692 175.435L80.1847 180.906L79.4613 181.827C79.5526 179.34 79.6791 176.861 79.8476 174.381C80.1707 169.788 80.6413 165.209 81.2524 160.643C81.8494 156.078 82.5868 151.526 83.4788 147.01C84.2655 142.979 85.1505 135.631 86.1549 131.642L236.82 154.153L208.311 129.971C212.904 130.174 217.491 130.385 222.084 130.617C227.563 130.891 233.041 131.179 238.506 131.523C241.238 131.691 243.97 131.874 246.695 132.085C248.058 132.19 249.413 132.303 250.762 132.436C251.436 132.499 252.103 132.577 252.764 132.654C253.094 132.696 253.41 132.745 253.733 132.787C254.063 132.829 254.323 132.893 254.618 132.942L254.772 132.97L255.096 133.005L255.369 133.026C255.552 133.04 255.728 133.047 255.903 133.047C256.254 133.047 256.599 133.047 256.943 133.033C257.631 133.005 258.312 132.935 258.987 132.822C260.342 132.605 261.67 132.225 262.941 131.691C264.212 131.158 265.42 130.448 266.523 129.612C267.261 129.044 267.949 128.404 268.581 127.73L273.013 129.746L269.213 124.246L268.139 122.694L266.685 124.506C265.996 125.363 265.217 126.129 264.36 126.796C263.496 127.449 262.562 127.997 261.557 128.418C260.56 128.84 259.499 129.142 258.418 129.318C257.877 129.402 257.329 129.465 256.788 129.486C256.62 129.493 256.458 129.486 256.297 129.486C256.226 129.296 256.149 129.107 256.072 128.917C255.77 128.166 255.454 127.414 255.11 126.684C254.435 125.209 253.698 123.762 252.848 122.371C252.651 122.02 252.42 121.676 252.195 121.332C251.97 120.987 251.759 120.643 251.506 120.313L250.776 119.323L250.137 118.557C250.446 118.564 250.755 118.571 251.071 118.564C252.672 118.543 254.302 118.431 255.995 118.03L256.62 117.89L257.175 117.743L258.277 117.433C259.015 117.223 259.745 117.005 260.462 116.773C261.909 116.324 263.334 115.825 264.718 115.354C264.894 115.291 265.069 115.235 265.252 115.172C264.929 116.162 264.599 117.16 264.268 118.143C263.882 119.267 263.496 120.419 263.046 121.486C262.892 121.978 262.463 122.371 262.028 122.771C261.585 123.165 261.108 123.53 260.609 123.867C261.171 123.656 261.726 123.418 262.274 123.13C262.548 122.989 262.815 122.835 263.074 122.645C263.208 122.554 263.334 122.448 263.461 122.329C263.58 122.196 263.707 122.048 263.791 121.929C264.535 120.924 265.175 119.913 265.835 118.894C266.333 118.115 266.818 117.328 267.31 116.549C267.338 116.633 267.373 116.724 267.401 116.801L267.935 118.094L268.693 118.396C268.743 118.417 268.834 118.452 268.855 118.452L268.946 118.48C269.009 118.501 269.073 118.515 269.115 118.522C269.213 118.543 269.319 118.564 269.403 118.578C269.578 118.606 269.761 118.628 269.916 118.642C270.246 118.67 270.555 118.677 270.864 118.684C271.475 118.684 272.058 118.656 272.627 118.599C273.764 118.487 274.86 118.318 275.935 118.101C276.476 117.995 277.002 117.869 277.536 117.75L279.11 117.349L280.662 116.914L282.2 116.443L280.606 116.331L279.018 116.19L277.445 116.008C276.925 115.93 276.405 115.86 275.893 115.769C274.867 115.6 273.863 115.383 272.901 115.116C272.507 115.01 272.128 114.884 271.77 114.75C271.678 114.287 271.573 113.83 271.447 113.353C271.334 112.945 271.215 112.531 271.046 112.081C270.955 111.85 270.871 111.625 270.73 111.351L270.632 111.154L270.491 110.923L270.344 110.691C270.295 110.62 270.232 110.55 270.175 110.48L271.011 107.614L271.735 105.128L272.114 103.8C272.254 103.182 272.205 102.719 272.17 102.241C272.079 101.314 271.896 100.45 271.692 99.5862C271.489 98.7293 271.25 97.8866 271.004 97.0508C270.491 95.3861 269.965 93.7285 269.304 92.1271C269.705 93.8058 269.979 95.5196 270.225 97.2263C270.344 98.0762 270.442 98.933 270.513 99.7829C270.583 100.626 270.625 101.483 270.583 102.276C270.562 102.663 270.506 103.077 270.4 103.288L269.88 104.39L268.778 106.75L268.757 106.8C268.455 105.584 268.103 104.369 267.689 103.154C267.443 102.438 267.162 101.721 266.825 101.005C266.474 100.289 266.102 99.5653 265.392 98.8418C265.287 98.7505 265.182 98.6591 265.076 98.5748C264.978 98.4976 264.922 98.4625 264.844 98.4063L264.409 98.0902L263.531 97.451L261.775 96.1869L254.737 91.1297C252.391 89.437 250.038 87.7654 247.672 86.0937C249.814 88.0393 251.963 89.9778 254.119 91.8953L259.823 96.9945L109.832 92.9137C110.021 92.5204 110.211 92.1341 110.401 91.7408C111.77 88.826 112.992 85.862 114.116 82.8419C115.254 79.8287 116.308 76.7804 117.249 73.6759C117.726 72.1237 118.162 70.5574 118.562 68.9701C118.962 67.3827 119.321 65.7812 119.588 64.1307C118.541 65.4371 117.621 66.8067 116.743 68.1904C115.865 69.5811 115.036 70.9858 114.257 72.4186C112.74 75.186 111.398 78.0306 110.176 80.9244C108.448 81.0087 106.657 80.9594 104.866 80.833C102.808 80.6785 100.736 80.4326 98.6711 80.1236C94.5271 79.4915 90.3902 78.6416 86.2743 77.6653C82.1584 76.689 78.0566 75.5934 73.9758 74.4134C69.9021 73.2335 65.8213 71.9691 61.8389 70.6205L61.4315 70.4801L61.0803 70.4942C60.3288 70.7049 59.6054 70.9438 58.9311 71.2739C58.2498 71.5829 57.6247 71.9691 57.0487 72.3905C56.4728 72.8049 55.953 73.2755 55.4895 73.7742C55.0259 74.2728 54.6185 74.7996 54.2955 75.3686C54.8784 75.0876 55.4825 74.9051 56.0795 74.7787C56.6765 74.6523 57.2735 74.582 57.8565 74.575C58.4394 74.575 59.0013 74.6101 59.5421 74.7154C60.0759 74.8067 60.5957 74.9752 61.0733 75.1578L60.3148 75.0314C64.4377 76.4291 68.5325 77.6934 72.6835 78.9015C76.8274 80.1025 80.9995 81.2123 85.2067 82.2096C89.4139 83.207 93.6702 84.085 97.9898 84.7382C100.153 85.0613 102.33 85.3212 104.543 85.4898C105.807 85.5811 107.078 85.6373 108.364 85.6373C107.816 87.2316 107.324 88.847 106.903 90.4906C106.713 91.2913 106.524 92.0919 106.369 92.8996C106.215 93.7144 106.081 94.5362 105.976 95.3579C105.863 96.1797 105.814 97.0226 105.758 97.8584C105.723 98.7013 105.758 99.5582 105.828 100.394C106.292 99.6636 106.685 98.9401 107.085 98.2237C107.493 97.5072 107.879 96.7908 108.251 96.0744C108.645 95.358 109.01 94.6417 109.361 93.9182C109.467 93.7216 109.558 93.5178 109.663 93.3211L153.947 114.624H80.1356C80.2199 114.484 80.2971 114.336 80.3814 114.181C80.4868 113.978 80.5851 113.774 80.6764 113.514C80.7607 113.247 80.8731 112.952 80.859 112.44C80.859 112.327 80.8309 112.159 80.7958 112.011C80.7607 111.864 80.6764 111.66 80.6062 111.526C80.5008 111.337 80.3674 111.147 80.2199 110.993C79.9249 110.677 79.5948 110.473 79.3068 110.332C78.7168 110.059 78.2392 109.96 77.7827 109.869C76.8906 109.7 76.104 109.651 75.3525 109.672C74.608 109.7 73.8986 109.799 73.2173 109.848C72.543 109.904 71.8828 109.953 71.3068 109.939C71.0961 109.939 70.9135 109.925 70.7379 109.904C70.7379 109.897 70.7449 109.883 70.7519 109.876C70.8573 109.623 71.0048 109.335 71.1593 109.005C71.3139 108.675 71.4965 108.303 71.658 107.846C71.7423 107.607 71.8266 107.362 71.8898 107.045C71.953 106.736 72.0092 106.385 71.9881 105.936C71.967 105.493 71.8617 104.959 71.5878 104.461C71.4543 104.222 71.2928 103.983 71.1172 103.793C70.9837 103.632 70.6536 103.337 70.3937 103.189C69.8599 102.873 69.4596 102.796 69.1295 102.726C68.7923 102.663 68.5184 102.642 68.2656 102.635C67.2752 102.606 66.5307 102.705 65.8002 102.782C65.0838 102.866 64.4025 102.958 63.8196 102.993C63.6229 103.007 63.4333 103.007 63.2858 103.007L62.0496 101.806C58.0461 97.8796 54.1199 93.869 50.5378 89.6618C50.2358 89.3036 49.9337 88.9384 49.6387 88.5802C49.6668 88.4818 49.702 88.3765 49.7371 88.2711C49.9267 87.7303 50.1936 87.1122 50.4746 86.466C50.7555 85.8058 51.0575 85.1456 51.3385 84.2677C51.4087 84.0429 51.479 83.797 51.5352 83.502C51.5633 83.3545 51.5913 83.186 51.6054 82.9823C51.6194 82.7856 51.6335 82.5538 51.5913 82.2377C51.5492 81.9287 51.4649 81.5143 51.1629 81.0367L51.1067 80.9524L51.0786 80.9103L51.0154 80.826C50.9732 80.7698 50.9311 80.7136 50.889 80.6644C50.7977 80.5591 50.7064 80.4608 50.608 80.3695C50.2077 80.0043 49.7792 79.7795 49.407 79.639C48.6484 79.3651 48.0725 79.337 47.5738 79.33C47.0681 79.33 46.6326 79.365 46.2252 79.4072C45.4175 79.4985 44.6941 79.6389 44.076 79.7232C43.8653 79.2245 43.6616 78.7119 43.472 78.2132C43.1418 77.3422 42.8258 76.4643 42.5448 75.5793C41.9759 73.8164 41.5123 72.0253 41.2244 70.2694C40.9434 68.5205 40.8521 66.7505 41.1612 65.3247C41.3157 64.6153 41.5685 64.0253 41.8916 63.6179C42.1726 63.2597 42.5237 62.9999 42.9803 62.8033L86.7168 58.6873L108.764 56.6083L114.278 56.0956C116.118 55.927 117.958 55.8146 119.798 55.6671C121.639 55.5196 123.472 55.33 125.298 55.0069C126.211 54.8524 127.117 54.6768 128.03 54.4801C128.487 54.3677 128.929 54.1641 129.365 53.8621C129.8 53.539 130.228 53.1457 130.629 52.4785C130.116 51.9025 129.617 51.5864 129.133 51.3476C128.648 51.1299 128.178 51.0034 127.707 50.9823C126.78 50.9543 125.853 50.9402 124.926 50.9542C123.071 50.9683 121.238 51.1158 119.398 51.3054C117.958 51.4529 116.518 51.6146 115.085 51.7621C123.352 46.3819 137.561 38.0799 149.656 35.7832C153.365 36.6611 176.065 42.0483 184.198 43.6918C186.299 44.633 200.297 50.884 209.856 54.6909C206.14 54.129 202.418 53.567 198.695 53.0262C197.319 52.8155 195.949 52.6119 194.565 52.4152L190.436 51.8041L186.306 51.1861C185.617 51.0877 184.929 50.9754 184.248 50.8489C183.559 50.7295 182.871 50.6242 182.183 50.5118C187.479 52.2888 192.929 53.5881 198.372 54.7962C203.823 55.9972 209.301 57.0227 214.78 58.0342C220.265 59.0315 225.751 59.9727 231.257 60.8507C232.901 61.1176 234.544 61.3703 236.181 61.6232C237.024 61.7917 237.859 61.9604 238.681 62.129C246.056 63.618 253.677 65.1631 255.622 66.0481C260.054 68.0639 285.691 85.7776 287.896 88.3413C288.535 89.0858 289.364 90.8488 290.186 92.7522C290.439 95.0911 290.671 97.444 290.881 99.7899C290.987 101.047 291.092 102.312 291.169 103.562C291.204 104.187 291.246 104.812 291.26 105.43C291.289 106.048 291.289 106.659 291.26 107.2L291.387 106.821L290.088 111.864L293.529 107.959L293.585 107.895L293.656 107.572C293.796 106.856 293.887 106.188 293.958 105.542C294.035 104.889 294.091 104.243 294.147 103.597C294.196 103.007 294.239 102.417 294.281 101.827C295.131 103.365 296.037 104.664 297.027 105.535C297.785 106.195 299.253 107.305 301.276 108.844C307.801 113.788 320.641 123.516 328.177 132.541C327.475 132.45 326.772 132.338 326.077 132.19C323.97 131.741 321.87 131.165 319.826 130.392C317.782 129.627 315.78 128.742 313.828 127.737C312.858 127.231 311.889 126.705 310.948 126.15C310.007 125.602 309.059 124.998 308.216 124.415L308.012 124.275L307.85 124.225C306.818 123.923 305.828 123.818 304.858 123.776C303.889 123.741 302.948 123.783 302.014 123.867C300.159 124.036 298.354 124.366 296.584 124.773C294.814 125.181 293.073 125.658 291.345 126.192C289.624 126.726 287.917 127.309 286.246 127.955C287.995 127.548 289.75 127.203 291.513 126.915C293.276 126.628 295.046 126.396 296.809 126.241C298.572 126.087 300.335 126.016 302.063 126.101C302.92 126.143 303.77 126.227 304.584 126.368C305.315 126.494 306.017 126.684 306.635 126.943C307.577 127.59 308.483 128.159 309.431 128.713C310.421 129.303 311.433 129.851 312.458 130.385C314.509 131.439 316.616 132.373 318.786 133.188C320.95 134.009 323.197 134.627 325.48 135.112C327.166 135.463 328.886 135.66 330.628 135.751L330.698 135.85L334.098 139.073C333.606 139.003 333.115 138.933 332.609 138.884C331.78 138.806 330.937 138.75 330.059 138.764C328.802 138.111 327.531 137.528 326.245 136.952L324.166 136.06L322.059 135.224C320.655 134.677 319.222 134.171 317.775 133.7C316.314 133.251 314.853 132.801 313.28 132.506L313.118 132.478H313.076C311.496 132.429 309.951 132.387 308.384 132.408C306.825 132.429 305.266 132.457 303.699 132.562C302.14 132.654 300.574 132.801 299.022 133.033C298.242 133.167 297.469 133.286 296.704 133.497C295.938 133.679 295.18 133.953 294.498 134.325C295.257 134.129 296.008 134.051 296.781 134.037C297.547 134.009 298.312 134.023 299.078 134.037C300.609 134.087 302.14 134.213 303.671 134.332C305.203 134.473 306.734 134.613 308.258 134.782C309.726 134.951 311.208 135.098 312.669 135.288C313.961 135.66 315.296 136.137 316.616 136.643L315.956 136.735C313.624 137.107 311.327 137.599 309.051 138.174C307.921 138.469 306.783 138.757 305.666 139.094C304.542 139.425 303.433 139.783 302.323 140.141C300.103 140.871 297.912 141.679 295.77 142.592C298.024 142.002 300.286 141.489 302.555 141.012C303.692 140.78 304.823 140.555 305.968 140.359C307.106 140.141 308.244 139.958 309.382 139.783C311.657 139.425 313.947 139.193 316.23 138.982C318.07 138.821 319.91 138.729 321.736 138.666L324.946 139.972C325.178 140.064 325.417 140.162 325.648 140.253C323.295 141.181 320.943 142.115 318.59 143.063L313.301 145.219C312.282 145.648 311.264 146.069 310.253 146.511C308.504 146.799 306.762 147.179 305.041 147.691C304.535 147.846 304.03 148 303.531 148.19C303.032 148.359 302.534 148.569 302.042 148.78C301.55 149.005 301.059 149.237 300.581 149.518C300.342 149.644 300.103 149.806 299.864 149.96C299.745 150.037 299.626 150.129 299.506 150.22C299.45 150.262 299.387 150.311 299.324 150.367C299.26 150.417 299.204 150.466 299.106 150.557L299.015 150.641L298.965 150.719L297.28 153.43C296.725 154.336 296.163 155.242 295.622 156.162C295.348 156.619 295.074 157.075 294.807 157.539C294.534 157.995 294.274 158.459 294.007 158.929C293.473 159.856 292.96 160.791 292.447 161.746C293.234 161.008 293.965 160.215 294.674 159.414C295.39 158.613 296.079 157.792 296.746 156.956C297.42 156.127 298.073 155.277 298.72 154.427C299.331 153.626 299.921 152.812 300.518 151.997C300.532 151.99 300.546 151.976 300.567 151.962C300.602 151.934 300.637 151.913 300.686 151.885C300.778 151.828 300.862 151.772 300.96 151.716C301.157 151.611 301.354 151.498 301.571 151.407C301.986 151.203 302.435 151.035 302.885 150.873C303.341 150.719 303.791 150.557 304.261 150.431C304.725 150.29 305.203 150.178 305.68 150.066C306.151 149.946 306.635 149.855 307.12 149.77L307.843 149.637L308.574 149.532C309.066 149.461 309.55 149.377 310.042 149.321L311.524 149.159C312.015 149.096 312.514 149.082 313.013 149.04L314.502 148.935C315.499 148.899 316.497 148.85 317.494 148.829C318.498 148.822 319.496 148.794 320.493 148.801C321.392 148.822 322.291 148.829 323.183 148.836C324.56 149.447 325.943 150.087 327.306 150.733C328.774 151.428 330.235 152.137 331.675 152.875C333.115 153.612 334.54 154.371 335.91 155.186C336.591 155.593 337.266 156.007 337.891 156.45C338.2 156.668 338.495 156.893 338.769 157.124C338.979 157.307 339.176 157.504 339.302 157.644C340.124 160.053 340.96 162.441 341.817 164.829C342.702 167.288 343.594 169.753 344.542 172.197C345.49 174.641 346.516 177.058 347.647 179.439C348.23 180.619 348.799 181.82 349.508 182.95C349.866 183.512 350.266 184.06 350.73 184.566C351.208 185.057 351.713 185.563 352.367 185.837C352.086 185.282 351.903 184.727 351.699 184.186C353.111 184.566 354.705 184.685 356.04 184.685C356.475 184.685 356.883 184.671 357.248 184.657C355.675 187.53 354.263 190.065 353.462 191.421L353.497 191.428ZM225.716 275.136H225.73C225.73 275.136 225.807 275.122 225.835 275.122L225.716 275.136ZM270.562 114.174C270.562 114.174 270.611 114.174 270.632 114.188L270.723 114.301C270.723 114.301 270.681 114.273 270.66 114.266C270.618 114.245 270.604 114.224 270.576 114.203C270.555 114.188 270.555 114.181 270.562 114.174Z" fill="black" stroke="black"/>
<path d="M287.194 173.657C288.177 172.744 289.139 171.796 290.066 170.785C287.819 171.417 285.704 172.281 283.625 173.208C284.77 173.348 285.908 173.489 287.053 173.636L287.194 173.657Z" fill="black"/>
<path d="M279.391 180.218C281.118 178.883 282.832 177.507 284.504 176.067C284.995 175.638 285.487 175.21 285.972 174.774L281.54 174.198C279.7 175.09 277.894 176.039 276.132 177.064C274.481 178.026 272.88 179.059 271.285 180.112C272.739 180.112 274.193 180.112 275.64 180.14C276.89 180.154 278.14 180.189 279.391 180.218Z" fill="black"/>
<path d="M248.184 265.352C248.457 265.907 248.717 266.476 249.012 267.017L249.455 267.839L249.925 268.653C250.248 269.201 250.586 269.735 250.965 270.269C251.33 270.81 251.745 271.358 252.32 271.955L252.594 272.236L253.1 272.432C253.578 272.615 253.978 272.769 254.414 272.91C254.842 273.05 255.27 273.184 255.699 273.303C256.563 273.549 257.434 273.753 258.312 273.921C258.747 274.005 259.19 274.09 259.639 274.146C260.082 274.209 260.524 274.279 260.974 274.315C261.423 274.35 261.866 274.406 262.315 274.427L263.671 274.462C265.483 274.448 267.309 274.279 269.079 273.823C270.842 273.338 272.57 272.594 273.953 271.435C272.141 271.491 270.498 271.428 268.868 271.266C267.239 271.084 265.637 270.81 264.05 270.501C262.463 270.185 260.882 269.819 259.309 269.426C258.916 269.335 258.522 269.236 258.129 269.131C257.736 269.033 257.342 268.927 256.949 268.822L255.776 268.499L255.067 268.295C254.863 268.084 254.638 267.846 254.407 267.593L253.269 266.286C252.51 265.387 251.723 264.474 250.923 263.568C250.115 262.662 249.3 261.756 248.429 260.871C247.565 259.986 246.666 259.115 245.683 258.293C245.95 259.551 246.329 260.745 246.758 261.918C247.179 263.091 247.671 264.229 248.191 265.359L248.184 265.352Z" fill="black"/>
<path d="M300.644 167.162C301.051 167.07 301.451 166.993 301.852 166.909C302.252 166.818 302.652 166.747 303.046 166.677C303.404 166.6 303.727 166.565 304.064 166.523L305.209 167.056L306.614 167.724L308.018 168.412L309.423 169.128C309.093 168.714 308.721 168.328 308.341 167.955C307.962 167.576 307.555 167.239 307.154 166.888C306.333 166.207 305.49 165.581 304.598 164.984L304.457 164.893H304.205C303.277 164.851 302.413 164.907 301.564 165.006C300.707 165.097 299.878 165.23 299.042 165.371C297.672 165.61 296.324 165.912 294.982 166.242C296.507 166.614 298.024 166.993 299.534 167.401C299.906 167.316 300.278 167.246 300.65 167.162H300.644Z" fill="black"/>
<path d="M293.901 167.063C293.564 166.965 293.22 166.88 292.883 166.789C291.668 167.126 290.459 167.491 289.265 167.899C287.671 168.454 286.098 169.058 284.56 169.795C286.266 169.704 287.938 169.5 289.603 169.261C291.267 169.022 292.911 168.734 294.547 168.418C295.369 168.264 296.184 168.088 296.999 167.913C296.57 167.793 296.149 167.681 295.72 167.562L293.901 167.063Z" fill="black"/>
<path d="M276.939 150.072C277.627 149.665 278.245 149.187 278.814 148.681C279.376 148.169 279.888 147.621 280.359 147.038C280.83 146.455 281.251 145.851 281.644 145.198L281.869 144.825L281.904 144.594C281.96 144.228 281.982 143.926 281.989 143.631C281.989 143.343 281.989 143.062 281.967 142.781C281.939 142.227 281.862 141.686 281.764 141.138C281.658 140.597 281.525 140.056 281.342 139.523C281.16 138.989 280.942 138.448 280.633 137.914C279.98 138.954 279.586 139.979 279.263 141.004C279.102 141.517 278.961 142.023 278.849 142.515C278.786 142.76 278.73 143.006 278.673 143.238C278.659 143.308 278.638 143.372 278.624 143.442C278.252 143.933 277.88 144.439 277.536 144.966C277.142 145.563 276.777 146.174 276.447 146.806C276.11 147.438 275.801 148.084 275.513 148.759C275.365 149.089 275.232 149.44 275.084 149.777C274.937 150.128 274.81 150.472 274.6 150.852C275.021 150.866 275.464 150.753 275.85 150.606C276.243 150.451 276.608 150.276 276.953 150.072H276.939Z" fill="black"/>
<path d="M282.221 153.956C283.057 153.177 283.808 152.362 284.546 151.463L284.827 151.119L284.89 150.866C284.925 150.739 284.946 150.606 284.974 150.479C285.002 150.346 285.023 150.22 285.03 150.114C285.044 149.904 285.079 149.665 285.079 149.475C285.093 149.068 285.072 148.681 285.051 148.302C284.988 147.551 284.876 146.827 284.728 146.111C284.405 144.685 283.991 143.294 283.267 141.953C282.811 143.4 282.572 144.804 282.34 146.181L282.024 148.19C281.975 148.513 281.912 148.829 281.849 149.117C281.835 149.229 281.806 149.314 281.785 149.398C281.111 150.058 280.409 150.739 279.741 151.428C278.997 152.193 278.259 152.959 277.543 153.745L275.38 156.098C274.642 156.885 273.94 157.665 272.992 158.381C273.28 158.416 273.589 158.437 273.898 158.43C274.193 158.402 274.495 158.36 274.797 158.311C275.38 158.177 275.963 158.002 276.504 157.777C277.599 157.328 278.625 156.751 279.559 156.098C280.507 155.452 281.385 154.722 282.214 153.949L282.221 153.956Z" fill="black"/>
<path d="M312.472 182.74L319.833 183.224C324.742 183.54 329.645 183.941 334.547 184.383C332.11 184.025 329.673 183.702 327.229 183.421C324.784 183.126 322.333 182.873 319.889 182.606C317.438 182.374 314.986 182.157 312.535 181.946C310.084 181.756 307.626 181.546 305.167 181.377C302.709 181.215 300.251 181.04 297.792 180.906L290.411 180.548C286.737 180.422 283.064 180.309 279.39 180.225C278.14 180.197 276.89 180.162 275.64 180.148C274.186 180.12 272.732 180.127 271.285 180.12C267.808 180.106 264.339 180.12 260.862 180.141L253.473 180.33L249.778 180.436L246.091 180.626L238.716 181.019L231.348 181.567L227.668 181.876L223.995 182.262C221.543 182.515 219.099 182.782 216.655 183.063C219.113 182.922 221.571 182.768 224.023 182.599L227.703 182.353L231.39 182.192L238.758 181.827L246.133 181.609L249.821 181.504L253.508 181.447L260.883 181.349C263.735 181.356 266.579 181.349 269.431 181.363C271.496 181.363 273.561 181.377 275.633 181.426C276.468 181.433 277.311 181.454 278.147 181.468C287.137 181.609 296.128 181.911 305.111 182.353C307.569 182.466 310.021 182.62 312.479 182.747L312.472 182.74Z" fill="black"/>
<path d="M286.885 174.894C290.909 175.428 294.934 175.962 298.958 176.545C302.983 177.093 307 177.704 311.018 178.28L323.071 180.099C327.095 180.682 331.099 181.349 335.116 181.967C327.179 180.204 319.187 178.673 311.173 177.296C307.169 176.601 303.151 175.962 299.127 175.351C297.118 175.035 295.102 174.747 293.094 174.466L287.194 173.651L287.053 173.63C285.915 173.483 284.77 173.342 283.626 173.201C276.693 172.338 269.747 171.593 262.793 170.996C254.688 170.315 246.555 169.9 238.428 169.795C242.481 170.153 246.534 170.371 250.579 170.806C254.625 171.137 258.663 171.593 262.702 171.986L268.756 172.668L271.784 173.005L274.804 173.377C276.82 173.63 278.835 173.848 280.851 174.115L281.54 174.206L285.972 174.782L286.892 174.901L286.885 174.894Z" fill="black"/>
<path d="M316.532 185.724C314.53 185.689 312.521 185.668 310.519 185.661C308.518 185.661 306.509 185.689 304.5 185.724L301.494 185.809C300.49 185.837 299.492 185.872 298.488 185.928C294.477 186.104 290.474 186.399 286.484 186.855C290.502 186.925 294.505 186.911 298.509 186.925L310.519 186.939L322.53 186.918C326.533 186.904 330.537 186.876 334.554 186.778C330.565 186.35 326.555 186.104 322.551 185.928C320.549 185.837 318.54 185.788 316.539 185.738L316.532 185.724Z" fill="black"/>
<path d="M332.56 175.063C332.188 174.67 331.787 174.312 331.401 173.926C331.001 173.56 330.593 173.209 330.186 172.858C329.772 172.514 329.336 172.191 328.915 171.854C328.493 171.509 328.037 171.228 327.594 170.912C327.152 170.603 326.709 170.294 326.246 170.013C324.427 168.854 322.502 167.871 320.543 167C319.559 166.565 318.548 166.199 317.55 165.813C316.525 165.483 315.507 165.153 314.474 164.879C315.408 165.42 316.356 165.897 317.305 166.382L320.107 167.892C321.013 168.44 321.975 168.889 322.867 169.458L324.237 170.252L325.572 171.095C326.028 171.362 326.464 171.65 326.899 171.945C327.334 172.24 327.784 172.521 328.205 172.83C328.634 173.132 329.069 173.427 329.498 173.736C329.912 174.059 330.341 174.368 330.762 174.684C331.584 175.337 332.413 175.99 333.192 176.7C333.993 177.395 334.751 178.133 335.468 178.933C334.983 177.971 334.33 177.1 333.642 176.271C333.305 175.85 332.925 175.464 332.56 175.063Z" fill="black"/>
<path d="M314.143 171.958C312.956 171.523 311.755 171.137 310.554 170.736C309.353 170.343 308.159 169.929 306.951 169.563C304.492 168.784 302.013 168.067 299.527 167.4C298.017 166.993 296.5 166.613 294.975 166.241C294.09 166.023 293.205 165.813 292.313 165.609L288.605 164.815C287.369 164.562 286.119 164.366 284.875 164.141C283.632 163.93 282.389 163.713 281.132 163.565C279.881 163.404 278.624 163.249 277.374 163.102C282.312 164.169 287.221 165.272 292.082 166.571C292.349 166.634 292.615 166.719 292.882 166.789C293.219 166.88 293.564 166.965 293.901 167.063L295.72 167.561C296.148 167.681 296.57 167.793 296.998 167.913C297.785 168.13 298.571 168.348 299.351 168.594L302.975 169.655L306.578 170.778C307.787 171.137 308.981 171.537 310.175 171.916C311.376 172.302 312.57 172.696 313.757 173.096C316.152 173.876 318.526 174.719 320.907 175.526C325.662 177.191 330.396 178.919 335.116 180.696C330.599 178.434 325.95 176.446 321.251 174.599C318.898 173.672 316.531 172.801 314.15 171.958H314.143Z" fill="black"/>
</svg>
